<?xml version="1.0" encoding="utf-8"?>
<!-- Generator: Adobe Illustrator 22.0.1, SVG Export Plug-In . SVG Version: 6.00 Build 0)  -->
<svg version="1.1" id="Слой_1" xmlns="http://www.w3.org/2000/svg" xmlns:xlink="http://www.w3.org/1999/xlink" x="0px" y="0px"
	 viewBox="0 0 356.6229858 358.199646" enable-background="new 0 0 356.6229858 358.199646" xml:space="preserve">
<g>
	<g>
		<path d="M293.2810059,227.5699768c-12.5580139-12.3980103-28.2380371-12.3980103-40.7190247,0
			c-9.5189972,9.4420166-19.0390015,18.8789978-28.3979797,28.4809875
			c-2.5620117,2.6400146-4.7230225,3.1990356-7.8399963,1.4370117c-6.1600037-3.3589783-12.7220154-6.0780029-18.6400146-9.7579956
			c-27.602005-17.3590088-50.7190094-39.6790009-71.1999969-64.8000031
			c-10.1600189-12.4809875-19.2030029-25.8399963-25.5190125-40.8789978
			c-1.2809906-3.0390015-1.0429993-5.0390015,1.4369965-7.5200043c9.5200043-9.2029877,18.8010101-18.6399994,28.1600037-28.0819702
			c13.0400085-13.1210022,13.0400085-28.480011-0.0780029-41.6790466
			C123.042984,57.25,115.6019897,49.8909607,108.1639862,42.3709717
			c-7.6799927-7.6799927-15.2809906-15.440979-23.0390015-23.0429688
			C72.5619812,7.0899963,56.8829956,7.0899963,44.4019775,19.4100037
			c-9.5969849,9.4419861-18.7999878,19.1210022-28.5579834,28.3989868
			C6.8049927,56.3710022,2.2420044,66.8519897,1.2809753,79.0899963
			c-1.5189819,19.9219971,3.3640137,38.7189789,10.2420044,57.0389862
			c14.07901,37.9219971,35.5200195,71.6009827,61.5200043,102.4800262
			C108.1639862,280.3710022,150.0819855,313.4099731,199.125,337.25
			c22.0779877,10.7189941,44.9569855,18.9609985,69.8399658,20.3199768
			c17.1170349,0.9609985,32.0000305-3.3590088,43.9180298-16.7179871
			c8.1600037-9.1220093,17.3590088-17.4420166,25.9999695-26.1610107
			c12.8009949-12.9609985,12.8790283-28.6400146,0.1600342-41.4410095
			C323.8439636,257.9689941,308.5619812,242.7699585,293.2810059,227.5699768L293.2810059,227.5699768z M293.2810059,227.5699768"/>
	</g>
	<path d="M261.0039673,178.8089752l29.519043-5.0389862c-4.6400146-27.1220093-17.4410095-51.6800079-36.8780212-71.1999817
		c-20.5629883-20.5580444-46.5630035-33.519043-75.20401-37.5190125l-4.1599731,29.6789856
		c22.1599731,3.1220093,42.3209839,13.1220093,58.2419739,29.0400085
		C247.5620117,138.8089752,257.4020081,157.8519897,261.0039673,178.8089752L261.0039673,178.8089752z M261.0039673,178.8089752"/>
	<path d="M294.8459473,62.4879761C260.7639771,28.4100037,217.6469727,6.8909912,170.0449829,0.25l-4.1600342,29.6799927
		c41.1210327,5.7610168,78.3989868,24.3979797,107.8400269,53.7610168
		c27.9219971,27.9179993,46.2379761,63.1999664,52.8789673,101.9999695l29.519043-5.0429993
		C348.3659668,135.690979,327.1659851,94.8909607,294.8459473,62.4879761L294.8459473,62.4879761z M294.8459473,62.4879761"/>
</g>
</svg>
