<?xml version="1.0" encoding="utf-8"?>
<!-- Generator: Adobe Illustrator 22.0.1, SVG Export Plug-In . SVG Version: 6.00 Build 0)  -->
<svg version="1.1" id="Слой_1" xmlns="http://www.w3.org/2000/svg" xmlns:xlink="http://www.w3.org/1999/xlink" x="0px" y="0px"
	 viewBox="0 0 297.2518311 410.0947266" enable-background="new 0 0 297.2518311 410.0947266" xml:space="preserve">
<g>
	<g>
		<path d="M148.6773224,0.2433496c-81.7969894,0-148.3439941,66.5470276-148.3439941,148.3399963
			c0,101.5120239,132.7539978,250.5350342,138.4059906,256.8280334c5.3089905,5.9140015,14.5749969,5.9019775,19.875,0
			c5.6529999-6.2929993,138.4030151-155.3160095,138.4030151-256.8280334
			C297.017334,66.7903748,230.4703217,0.2433496,148.6773224,0.2433496L148.6773224,0.2433496z M148.6773224,202.7858582
			c-29.8877869,0-54.1990433-24.3141479-54.1990433-54.2019501c0-29.8855896,24.3134308-54.1990204,54.1990433-54.1990204
			c29.8848877,0,54.1990051,24.3134308,54.1990051,54.1990204
			C202.8763275,178.4717102,178.5622101,202.7858582,148.6773224,202.7858582L148.6773224,202.7858582z M148.6773224,223.2203674"/>
	</g>
</g>
</svg>
