<?xml version="1.0" encoding="utf-8"?>
<!-- Generator: Adobe Illustrator 22.0.1, SVG Export Plug-In . SVG Version: 6.00 Build 0)  -->
<svg version="1.1" id="logo_stroke" xmlns="http://www.w3.org/2000/svg" xmlns:xlink="http://www.w3.org/1999/xlink" x="0px"
	 y="0px" viewBox="0 0 600 600" style="enable-background:new 0 0 600 600;" xml:space="preserve">
<style type="text/css">
	.st0{fill:#FFFFFF;}
	.st1{opacity:0.5;fill:#878787;}
	.st2{fill:#0051A3;}
	.st3{fill:none;}
</style>
<g>
	<path class="st0" d="M300.5,586.2c-76.5,0-148.3-29.8-202.4-83.8C44,448.3,14.2,376.5,14.2,300c0-76.5,29.8-148.3,83.8-202.4
		C152.1,43.5,224,13.8,300.5,13.8c76.5,0,148.3,29.8,202.4,83.8c54.1,54.1,83.8,125.9,83.8,202.4c0,76.5-29.8,148.3-83.8,202.4
		C448.8,556.5,376.9,586.2,300.5,586.2z"/>
	<path class="st0" d="M300.5,16.8c156.4,0,283.2,126.8,283.2,283.2S456.9,583.2,300.5,583.2S17.2,456.4,17.2,300
		S144.1,16.8,300.5,16.8 M300.5,10.8c-39,0-76.9,7.6-112.6,22.7c-34.4,14.6-65.4,35.4-91.9,62S48.5,153,34,187.4
		C18.9,223.1,11.2,261,11.2,300s7.6,76.9,22.7,112.6C48.5,447,69.4,478,96,504.5s57.5,47.4,91.9,62c35.7,15.1,73.5,22.7,112.6,22.7
		s76.9-7.6,112.6-22.7c34.4-14.6,65.4-35.4,91.9-62s47.4-57.5,62-91.9c15.1-35.7,22.7-73.5,22.7-112.6s-7.6-76.9-22.7-112.6
		c-14.6-34.4-35.4-65.4-62-91.9s-57.5-47.4-91.9-62C377.4,18.4,339.5,10.8,300.5,10.8L300.5,10.8z"/>
</g>
<g id="building_10_">
	<rect id="building_11_" x="222.6" y="266.6" class="st1" width="51.8" height="167.8"/>
	<g id="windows_5_">
		<rect x="229.7" y="289" class="st0" width="8.4" height="13.3"/>
		<rect x="242" y="281.2" class="st0" width="11.7" height="11.7"/>
		<rect x="260.5" y="281.2" class="st0" width="9.8" height="14.4"/>
		<rect x="251.4" y="300" class="st0" width="10.1" height="10.1"/>
		<rect x="260.5" y="314.3" class="st0" width="9.7" height="11.7"/>
		<rect x="261.6" y="330.8" class="st0" width="9.2" height="9.2"/>
		<rect x="238.1" y="317.8" class="st0" width="13" height="13"/>
		<rect x="247.9" y="335.4" class="st0" width="8.6" height="11.6"/>
		<rect x="253.7" y="378.2" class="st0" width="7.9" height="12.9"/>
	</g>
</g>
<g id="building_8_">
	<rect id="building_9_" x="282.6" y="244.9" class="st1" width="51.8" height="187.6"/>
	<g id="windows_4_">
		<rect x="295.9" y="278.6" class="st0" width="8.4" height="13.3"/>
		<rect x="317.7" y="268.3" class="st0" width="12.5" height="14.1"/>
		<rect x="295.9" y="260.8" class="st0" width="11.4" height="12.6"/>
		<rect x="284.8" y="251.6" class="st0" width="8.1" height="10"/>
		<rect x="304.3" y="294.8" class="st0" width="14.6" height="14.6"/>
		<rect x="284.8" y="301" class="st0" width="13.8" height="10.7"/>
		<rect x="286.4" y="315.1" class="st0" width="10.3" height="10.3"/>
		<rect x="297.3" y="325.3" class="st0" width="10" height="10"/>
		<rect x="304.3" y="340" class="st0" width="12.2" height="10.6"/>
		<rect x="317.7" y="328" class="st0" width="10" height="11.9"/>
		<rect x="288.2" y="362" class="st0" width="10.4" height="10.4"/>
	</g>
</g>
<g id="building_6_">
	<rect id="building_7_" x="339.3" y="281.2" class="st1" width="48.9" height="187.6"/>
	<g id="windows_3_">
		<rect x="371.3" y="302.8" class="st0" width="12.9" height="13.3"/>
	</g>
</g>
<path class="st2" d="M300.5,16.8C144.1,16.8,17.2,143.6,17.2,300s126.8,283.2,283.2,283.2S583.7,456.4,583.7,300
	S456.9,16.8,300.5,16.8z M314.7,381.4l-0.8-0.4l-7.3-1.6l-3.2-1.2l-0.6-0.6l-0.6-0.9l-0.2-0.5l-0.2-0.7v-0.5l0.4,0.2l0.3,1.3
	l0.3,0.9l0.5,0.6l0.8,0.5l6.5,1.6l2.6,0.6l1.7,0.7l0.3,0.2L314.7,381.4z M475.8,279l-0.3,1l0,1.1l-0.2,0.3l-0.5,0.3l-0.4,0.3
	l-0.7,1.1l-0.4,0.4l-1.2,0.8l-0.6,0.5l-0.4,0.7l-0.1,0.4l0.1,1l-0.1,0.3l-0.2,0.2l-0.3,0l-0.6-0.1h-0.6l-1.7,0.6l-1-0.1l-0.4,0.3
	l-0.2,1.6l0.3,0.4l0.4,0.3l0.4,0.4l0.3,0.6l0.2,0.4l0.2,0.3l0.5,0.2l1.6,0.4l0.7-0.1l0.2,0.1l0.2,0.2l0.4,0.5l0.3,0.1l0.4-0.2
	l0.4-0.5l0.4-0.4l0.5,0.1l0.4,0.5l0.1,0.6l-0.3,0.6l-0.4,0.5l-0.9,0.7l-0.8,0.1l-2.2-0.9l-0.5,0l-0.4,0.2l-0.4,0.5l-0.2,0.3
	l-0.1,0.4l-0.2,0.3l-0.5,0.2l-0.2,0.3l-1.2,4.1l-0.2,0.8l0.8-0.1l0.4-0.2l2.4,0.3l0.5,0.3l0.4,0.5l0.2,0.8l0,0.2l0.1,0.2l0.1,0.1
	l0,0.1l-0.1,0.3l-0.2,0.1l-0.2,0l-0.1,0l0.1,0.5l0.2,0.3l0.2,0.2l0.6,1.4l0.2,0.8l0.2,0.4l0.2,0.3l-0.5,0.5l-0.4,0.5l-1.4,1.2
	l1.4,0.9l0.4-0.1l1.1-0.4l0.4,0.1l0.3,0.5l-0.1,0.6l-0.3,0.6l-0.4,0.4l-1,0.7l-0.4,0.5l-1,1.9l-0.3,0.6l-0.1,0.7l0.3,0.9l0,0.3
	l-0.1,0.1l-0.1,0l-1.1,0.2l-0.2,0.2l-0.2,0.3l0.1,0.2l0.2,0.2l0.2,0.3l0.3,0.7l0,0.3l-0.1,0.5l-0.1,0.2l-0.2,0.5l-0.1,0.3v0.2
	l0.1,0.4l0,0.2l-0.2,0.9l-0.3,0.8l-0.5,0.5l-0.7,0.1l-2-0.5l-0.6-0.1L463,325l-0.6-0.1l-0.5-0.2l-0.9,0.3l-0.5,0l-0.4-0.2l-0.7-0.5
	l-0.4-0.1l-3,0.1l-0.8,0.2l-0.4,0l-0.4-0.1l-1.1-0.7l-3.3-0.1l-0.9,0.4l-0.7,0.9l-0.5,1.2l-0.4,1.4l-0.2,1.3l-0.2,0.5l-0.4,0.1
	l-0.7-0.3l-0.3,0.1l-0.4,0.3l-0.8,0.9l-0.4,0.3l-0.5,0.2l-4.2,0.6l-0.7,0.5l-0.5,0.9l-0.4,1l-0.3,1l0.1,2.1l-0.1,0.8l-0.5,0.9
	l-0.6,0.8l-0.3,0.5l-0.1,0.5l0.3,0.3l0.4,0.1l0.8-0.1l0.4,0l0.3,0.2l0.2,0.3l-0.1,0.6l-0.3,0.4l-0.4,0.3l-0.5,0.2l-0.4,0.3l-0.4,0.7
	l-0.1,0.9l0.1,0.9l0.3,0.8l-0.4,0.4l-1.1,1.5l-0.7,0.3l0.5-0.9v-0.5l-0.5-0.2l-0.7-0.5l-0.1,0.1l-0.1,0.1l-0.5,0.3l-0.2,0.1
	l-0.8-0.3l-0.5-0.1l-0.2,0.1l-1.8-0.3l-2.2,0.8l-0.9,0l-2.6-0.5l-0.7,0.3l-1.3,1.4l-2.1,3l-0.5,1l-0.3,0.5l-0.5,0.2l0.1-0.7
	l-0.5-0.6l-0.7-0.4l-0.7-0.1l-0.4,0.1l-0.9,0.7l-2.3,7.7l-0.4,0.1l-0.2,0.1l-0.7,0.6l-0.2,0.1l-0.7,0.3l-1.1,1l-0.7,0.1l0.2,0.7
	l-0.3,0.7l-0.4,0.7l-0.2,0.7l-0.2,0.8l-0.4,0.8l-0.5,0.5l-0.5-0.2v-0.2h0.2l0.4,0.2l0.4-0.8l0.3-1v-0.5l-0.2-0.1l-0.7-0.9l-0.3-0.2
	l-0.7-0.2l-0.3-0.2l-0.3,0.2l-0.4,0l-0.6-0.2l-0.3,0.1l-0.2,0.2l-0.2,0.2l-0.2,0.1h-1.3L402,364l-1,0.2l-0.7,0.3l-0.6,0.5l-1.4,1.5
	l-0.4,0.7l-0.1,0.9h-0.2v-0.4l-0.1-0.1l-0.2,0.1l-0.2,0.1l0,0.2l0,0.1l-0.1-0.3l0.1-0.1l0-0.2v-0.2L397,367l-0.1-0.1l-0.2-0.4
	l-0.1-0.1l-0.1-0.1l-0.4-0.2h-0.4l-0.8,0.2l-1.4-0.2l-2.8,0.5l-0.5,0l-1.5,0.9l-1.1,0.6l-0.6,0.5l-1.6,1.9l-0.7,0.6l-2.4,1.2
	l-0.4,0.3l-0.3,0.4l-0.6,0.9l-0.3,0.3l-0.7,0.5l-0.3,0.3l-1.9,3.2l-0.4,0.5l-1.1,2.2l-0.5,0.7l-0.5,0.5l-0.8,0.3l-0.5,0.4l-0.7,0.2
	l-0.5,0.4l-0.8,0.4l-0.4-0.1l0.1-0.3l0.6-0.7l0.7-0.5l-0.1-0.1l-0.1-0.3l2.1-0.6l1-0.6l0.6-1.1l0.5-0.5l0.2-0.5l0.6-1l0.7-0.8
	l0.3-0.5l0.1-0.7l-0.4,0.4l-0.4,0.3l-0.4,0l-0.5-0.4l-0.2-0.7l0.1-0.8l0.4-1.1l-0.2-0.1l-0.3,0l-0.2-0.1l-0.2-0.1l-0.3-0.3l-0.3-0.2
	l-0.3-0.4l-0.2-0.5l-0.1-0.5l-0.4,0.6l0.2,0.6l0.4,0.5l0.2,0.4l0.1,0.4l0.1,0.2l0.1,0.3l-0.1,0.5l-0.2,0.3l-0.7,0.7l-1.2,1.9
	l-0.7,0.8l-0.9,0.6L371,379h-0.2l-0.3-0.1l-0.1-0.2l0-0.2l-0.1-0.1l-0.2,0.1l-0.2,0.3l0,0.3l-0.1,0.3l-0.9,0.4l-0.1,0.1l-0.4,0.5
	l-0.1,0.3l0,0.3l0,0.2l0.1,0.5l0.1,1.9l0.1,0.4l0.2,0.5l0.7,3.6l0.2,0.4l0.2,0.3l0.2,0.4l1.1,2.9l1.7,3.5l5.8,8.6l3,2.1l0.8,0.1
	l3.6-1l0.4-0.3l0.6-0.6l0.1-0.3l0-0.3l0.1-0.2l0.3-0.1l0.1-0.1l0.3-0.4l0.1-0.1l0.1-0.5l0.2-0.5l0.3-0.4l0.3-0.2l0.5,0.1l0.1,0.3
	l-0.2,0.5l-0.1,0.5l0.2,0.4l0.4,0.3l1.5,0.9l0.8,0.3l0.7-0.2l0.6-0.8l0.3-0.9l0.1-0.1l0.6-0.4l0.4-0.4l0.4-0.2l2.3,0l0.3-0.3
	l0.3-0.3l0.3,0.1l0.2,0.4l-0.2,0.5h0.3l0.2-0.2l0.2-0.2l0.2-0.1l0.4,0.1l0.6,0.4l0.4,0.1l1.2-0.3l0.4,0.1l0.5,0.7l0.3,0.3l0.3-0.1
	l0.4-0.4l0.3-0.1l0.3,0.2l0.3,0.4l0.4,1l0.2,0.7L405,405l-0.7,0.2h-0.3l-0.2-0.1l-0.6-0.3l-0.5-0.1l-0.4,0.1l-0.3,0.3l-0.1,0.6
	l0.1,0.2l0.1,0.1l0.1,0.1l-0.1,0.3l-0.2,0.1l-0.5,0l-0.2,0.1l-0.3,0.4l-0.2,0.6l-0.2,0.6l-0.2,1.7v0.6l0.1,0.6l0.6,0.6l0.3,0.4
	l-0.1,0.4l-0.3,0.3l-1.4,0.5l-1.8,0.1l-0.2,0.1l-0.2,0.1l-0.1,0.2l-0.1,0.5l-0.1,0.2l-0.4,0.1l-1.8-0.4l-1.1-0.7v0.2l-0.6-0.3
	l-0.5,0.5l-0.4,0.7l-0.3,0.3l-1.5-0.1l-1.4,0.3l-0.4-0.2l-0.2-0.6l-0.1-0.3l-0.6-0.7l-0.2-0.2l-1.3-0.8l-1.5-0.6l-0.9-0.2h-0.9
	l-0.8,0.2l-0.7,0.4l-1.1,0.9l-0.2,0.2l-0.1,0.3l-0.1,0.2l-0.1,0.2l0.1,0.3l0.1,0.1l0.6,0.3v0.2l-0.3,0.1l-0.7-0.1l-0.3,0.1l-0.2,0.3
	l0,0.4l0.1,0.9l-1-0.8l-0.1,0.1l-0.2,0.2l-0.1,0.1l-0.5-0.3l-0.4,0.3l-0.5,0.9l-0.4,0.3l-0.9,0.2l-0.4,0.2l-0.5,0.9l-0.4,1.3
	l-0.6,0.9l-0.9-0.1l-0.2-0.3l-0.2-0.4l-0.3-0.4l-0.4-0.2l-0.7,0l-0.2,0l-0.2,0.1l-0.2,0.2l-0.1,0.2l-0.2,0.1L370,420l-0.7-0.2
	L369,420l-0.3,0.2l-1.4-0.3l-0.7,0.3l-1.4,1l-0.8,0.3l-1.6,0.4l-0.7,0.3l-0.5,0.5l0-0.1v-0.1l0,0h-0.1l-0.8,1.2l-0.1,0.2l-0.2,0.3
	l-0.7,1.2l-0.8,2.1l-0.2,0.4l-0.2,0.1l-0.5-0.1h-0.3l-0.2,0l0,0.1l-0.1,0.1v0.2l-0.1,0.1l-0.4,0.7l-0.3,0.2l-1,0.2l-0.3,0.3
	l-0.2,0.4l-0.3,0.5l-0.2,0.2l-0.7,0.5l-0.3,0.1l-0.5,0.1l-2.2,1l-0.4,0.1l-0.5-0.1l-1.3-0.5h-0.3l-0.4,0.1l-0.2,0l-1.3,0l-0.4-0.1
	l-1.5-0.7l-0.3-0.3l-0.1-0.5l-0.1-0.3l-0.6-0.8l-0.2-0.2l-0.4,0l-0.4,0.1l-0.4,0l-0.4-0.3l-0.3-0.3l-2.1-1.5l-0.2-0.3l0-0.3l0.1,0.1
	l0.6-0.1l0.2-0.1l0.5-0.3l0.2-0.1l0.4,0l0.2,0l0.2-0.1l0.3-0.1l1,0l0.4-0.2l-0.3-0.1l-0.7-0.1l-0.2-0.2l0-0.4l0.2-0.4l0.3-0.3
	l0.2-0.3l0.1-0.5l0-0.3l-0.2-0.6l-0.1-0.8l-0.1-0.4l-0.2-0.4l0.1-0.1l0.1-0.1l0.1-0.2l0.1-0.6l0.2-0.5l0.3-0.4l0.8-0.3l0.2-0.4
	l0.1-0.5l0.1-0.6v-0.7l-0.2-1.1l-0.1-0.5l-0.1-0.2l-0.4-0.7l-0.1-0.3l-0.1-0.7l-0.3-1.2l-0.5-0.7l-1.4-0.9l-1.1-1l-0.4-0.2l-0.8,0.1
	l-0.8,0.3l-0.7,0.4l-0.5,0.1L337,410l-0.2-0.4l-0.4-0.2l-0.9-0.3l-0.3-0.3l-0.7-0.9l-0.5-0.3l-0.2-0.3l-0.2-0.4l-0.2-0.1l-0.4-0.2
	l-0.2-0.1l-1.3-1.2l-0.7-0.5l-0.8-0.3l-3-0.3l-0.4,0.1l-0.3,0.2l-0.7,0.8l-0.3,0.2h-1.4l-0.4-0.2l-0.7-0.4l-0.5-0.1l-0.6-1.6
	l-0.1-0.4l0.3-0.8l0.6-0.6l2.4-1.8l0.4-0.1l0.5-0.1l0.4-0.1l0.3-0.2l0.3-0.2l0.2-0.2l0.1-0.2l0.2-0.2l0.3-0.1l0.2,0l0.4,0.2l0.2,0
	l0.3-0.1l0-0.2l-0.1-0.3l0-0.2l0-0.3l0.1-0.2l0.2-0.2l0.6-0.6l1.4-0.9l4.6-2.1l0.3-0.2l0.1-0.4l-0.1-0.1l-0.2-0.1l-0.2-0.2l0-0.3
	l0.2-0.2l0.2,0.1l0.3,0.4l0.7,0.4l0.7-0.1l1.5-0.9l0.7-0.3l0.1-0.2l0.6-0.7l0.3-0.1l0.8-0.6l0.3-0.1l0.1,0.1l0.4,0.3l0.3,0.1l0.2,0
	l0.5-0.2l0.5-0.6l0.4-0.3l0.2-0.1l0.2,0l0.2,0.1l0.2,0.1l0.2,0.2l0.1,0.2l0.1,0.2l0.2,0l0.4-0.1l0-0.3l-0.1-0.7l0.1-0.5l0.3,0.1
	l0.3-0.2l0.7-0.2l0.4-0.2l-0.4-0.3l-0.4-0.2l-1.1-0.3l-0.5,0.1l-0.2,0.1l-0.2,0.2l-0.1,0.1l-0.3-0.2l0.4-0.5l0.2-0.3l0.1-0.1
	l-0.2-0.1l0-0.2l0.1-0.3l0.2-0.3l0-0.2l-0.3-1l0-0.3l0.2-0.3l0.2-0.3l-0.1-0.5l-0.6-1.2l-0.3-0.3l-0.5,0.2l-0.4,0.4l-0.4,0.4l0,0.4
	l0.5,0.4v0.2l-0.5,0l-0.5,0.2l-0.2,0.4l0.4,0.6h-0.2l-0.4-0.2h-1.2l-0.2-0.2l-0.6-0.9l-0.5-0.5l-0.5-0.1l-0.4,0.6l-0.1-0.2l-0.1,0
	h-0.1l-0.1,0l0.3-0.3l0.2-0.4l-0.1-0.3l-0.5-0.2l-1.6,0.2l0.1-0.4l0.1-0.4l0.2-2l-0.5,0.5l-0.3,0.8l-0.4,0.7l-0.6,0.3l-0.2,0
	l-0.3,0.1h-0.2l-0.2-0.1l-0.4-0.3l-1.2-0.6l0.2,0.8l-0.3,0.4l-2.1,0.4H330l-0.2,0l-0.2-0.1l-0.2,0l-0.5,0l-0.2,0l-1.1-0.4l-0.5-0.1
	l-0.3,0.1l-0.8,0.4l-2.5,0.5l-0.2,0.1l-0.2,0.2l-0.3,0.4l-0.2,0.1l-0.8,0.1l-4-1.2l-0.5-0.3l-0.3,0l-0.1-0.1l0-0.1l-0.1-0.4l0-0.1
	l-0.1-0.2l-0.1-0.4l-0.1-0.2l0.4-0.4l0.1-0.2l0.1-0.3l-0.6,0.3l-0.5,0.1l-0.5-0.1l-0.9-0.3l-0.3-0.1l-0.3-0.2l-0.8-1l-0.6-0.5
	l-0.6,0.3l-1-0.5l-1.7-1.3l-0.1,0.4l0.1,0.4l0.1,0.3l-0.2,0.1l-1.3-0.1l-0.4-0.1l-0.3-0.2l-0.3-0.3l-0.1-0.5l0.3-0.4l0.4-0.3
	l0.3-0.2l0.4-0.1l1.1,0.3l1.5-0.3l0.2-0.1l1.1-1l0.3-0.1h0.3l0.2-0.1l-0.2-0.4l-0.9-1.3l-0.3-0.1l-0.8,0.1l-0.9-0.2l-2.8-1.2
	l-0.5-0.1l-0.5,0l-0.3,0.2l-0.3,0.3l-0.1,0.2l-0.1,0.2l0,0.3l0,0.9l-0.5-1.2l-0.2-0.2l-0.3-0.1l-2.4-2.4l-0.3-0.7l0.6,0.5l0.5,0.6
	l0.3,0.2l3.5-0.3l0.7,0.2l1.2,0.7l0.3,0.1h1.7l1.7,0.4l1.2-0.2h0.4l2.2,0.5l1.1,0.7l0.8,0.2l0.9-0.1l0.8-0.3l0.6-0.6l-0.4-0.5
	l0.6-0.8l1.4-1.2l0.4-0.3l0.9-0.1l0.4-0.2l0.3-0.3l0.3-0.2l0.3-0.3l0.2-0.5l-0.5,0.2l-0.5,0.4l-0.6,0.3l-0.5-0.1l-2.7,1.6l-1.5,0.2
	l-1.3-0.7l-0.3-0.5l-0.1-0.1l-0.2,0.1l-0.3,0.4l-0.2,0.1l-0.2,0l-0.4,0.2l-0.2,0l-0.5,0.6l-0.3-0.3l-0.3-1.1l-0.3-0.2l-1.2-0.3
	l-0.3-0.2l-0.3-0.3l-0.3-0.5l-0.3-0.6l-0.1-0.5l-0.1-0.6l-0.2-0.4l-0.2-0.4l-0.2-0.5l-0.1-1.2l0.4-0.9l0.5-0.9l0.4-1l0.1-0.6l0-0.4
	l-0.2-0.3l-1-0.2l-0.2-0.3l0.1-0.4l0.6-0.9l0.2-0.3l-0.1-0.2l-0.6-0.1l-0.9,0.2l-0.4-0.1l-0.3-0.3l0.6-1.3l0.1-0.7l-0.3-0.8
	l-0.3-0.3l-0.3-0.1l-0.2-0.1l-0.1-0.5l-0.1-0.6v-0.3l-0.1-0.2l-0.3-0.3l-1.2-0.6l-0.2-0.4l0.1-0.6l0-0.2l-0.2-0.1l-0.1,0.1l-0.3,0.5
	l0,0.2l0.1,0.3l0.3,0.3l0.4,0.3l0.9,0.2l0.2,0.4l0,1.7l0.1,0.2l0.5,0.1l0.2,0.2l0.1,0.1l0.1,0.1l0.3,0.2l-0.2,0.5l-0.3,0.5l-0.2,0.2
	l-0.2,1.4l0.6,0.3l0.9-0.1l0.7,0.1l-0.6,0.7l-0.3,0.5l-0.1,0.5l0.2,0.5l0.4,0.1l0.5-0.2l0.4-0.3l0.1,0.6l-0.2,0.9l-0.4,0.8l-0.5,0.3
	l-0.5,0.2l-0.4,0.4l-0.3,0.6v0.8l0.8,1l0.1,0.2l-0.2,1.3l0.1,0.5l0.1,0.2l0,0.2l-0.2,0.4l-0.1,0.2l-0.5,0.3l-0.2,0.1l-0.9,0.2
	l-0.9-0.1l-1.9-0.8l-1.2,0.1l-0.4,0.2l-0.2,0.4l-0.2,0.4l-0.5,0.1l-0.1-0.1l-0.3-0.3l-0.2-0.1l-0.4,0l-0.2,0l-0.2-0.1l-0.1-0.4
	l0.2-0.5l1.1-1.9l0.3-0.6v-0.3l0.3-0.2l0.9-1.4l-0.3-0.4l-0.2,0.2l-0.1,0.4l-0.2,0.4l-0.1,0.1l-0.4,0.2l-0.2,0.1l-0.1,0.2l-0.4,0.6
	l0,0.1l-0.1,0.1l-0.2,0.1l-0.3-0.2l-0.3-0.2l-0.3-0.7l-0.2-0.4l-0.3-0.1l0.2,0.7l0,0.2l0.1,0.4l0.1,0.2l0.2,0.1l0.6,0.5l0.1,0.2
	l-0.2,0.4l-0.4,0.6l0,0.1l-0.3,0.3l-0.7,1.1l-0.3,0.3l-0.4,0.1l-0.9,0.5l-0.3,0.2l-0.3-0.2l-0.6-0.1l-0.3-0.2l-0.2,0.2l-0.4-0.3
	l-1.4-0.4h-0.6l-1,0.3l-1.1,0.2l-0.8,0.3l-0.5,0.1l-0.2,0.1l-0.5,0.4l-0.2,0l-0.2-0.1l-0.3,0.1l-1.2,0.8l-0.3,0.1l-0.8-0.2h-0.2
	l-0.3,0.2l-0.6,0.8l-0.1,0.3l0.1,0.4l0.3,0.7l0.2,0.6h0.1l0.2,0.2l0.1,0.2l-0.1,0.1l-0.1,0.1l-0.1,0.1l-0.1,0.2l-0.2,0.9l-0.1,0.1
	l-0.8,1.1l-0.3,0.3l-1.1-0.1l-0.3,0.4l0.1,0.2l0.5,0.3l0.2,0.2v0.3l-0.1,0.3l-0.6,1.2l-1.4,2l-0.4,0.8l-0.3,0.4l-0.3,0.2l-0.2,0.2
	l-0.4,1.2l-0.2,0.4l-2.5,2.4l-2.2,3l-1.1,1.2l-1.3,1.1l-4.6,4.5l-2,1.5l-1.5,0.7l1-0.6l0.4-0.3l0.2-0.3l0.1-0.3l0.3-0.1l0.3-0.1
	l0.3-0.1l0.3-0.3l0.6-0.6l0.3-0.3l3.2-3l1.3-0.8l0.1-0.4l-0.1-1.6l-0.2-0.1l-0.2,0.2l-0.2,0.3l-0.1,0.3l-0.1,0.8l0,0.2l-0.1,0.2v0.2
	l0,0.1l-0.2,0l-0.1-0.1l-0.1-0.1l-0.1-0.1l-0.1,0.1l-0.2,0.1l-0.9-0.8l-0.5-0.2l-0.5,0.2l-0.2,0.6l-0.1,0.7l-0.1,0.7l-0.2-0.3
	l-0.2-0.3v-0.2l0.1-0.3l-0.1-0.2l-0.2,0.1l-0.2,0.4l0,0.5l0.1,0.4l0.2,0.3l0.2,0.2l-0.1,0.8l-0.1-0.3l-0.2-0.2l-0.4-0.3l0-0.1l0-0.1
	l0-0.1l-0.2-0.1l-0.1,0.1l-0.1,0.1l-0.1,0.1l-0.1,0.1h-0.5l-0.6,0.1l-0.4,0.3l-0.1,0.6l0.2,0.4l0.3,0.2l0.5,0.2l0.3,0.3l0.2,0.2
	l-0.1,0.1l-0.4,0.2l-0.3,0.3l-0.4,0.2l-0.4-0.2l-0.1,0.2l-0.1,0.1v0.1l0.1,0.2l-0.3,0.2l-0.6,0.2l-0.3,0.2l0-0.8l-0.2-0.8l-0.4-0.6
	l-0.5-0.3l0.1-0.2l-0.1-1.4l0.1-0.5l0.1-0.2l0-0.2l-0.2-0.3l-0.1-0.2l-0.1-0.1l-0.1,0l-0.4-0.4l-0.1-0.1l-0.1-0.3l-0.1,0l-0.1,0.2
	l-0.1,0.2l0.1,0.2l0.3,0.4l0.1,0.1l-0.1,0.2l-0.4,0.5l-0.1,0.4l0,0.4l0.1,0.2l0.1,0.2l0.2,0.3l-0.7,0.5l-0.1,1.2l0.1,1.4l-0.2,1.3
	l0.5,0.3l0.3,0.1l0.4,0l0.4-0.1l0.3-0.2l0.5-0.5l-0.3,0.3l-0.7,1l-0.3,0.2l-0.2,0.1l-0.1,0.3l-0.1,0.3l-0.1,0.1l-0.3,0.1v0.3
	l0.3,0.7l0.2,0.2l0.2,0.2l0.2,0l0.1-0.3l0-0.4l0.1-0.3l0.3-0.1v0.7l0.1,0.1l0.1,0l0.1-0.1v-0.1l0.2,0.1l0.2,0l0.1,0.1l0.1,0.5
	l0.1-0.4l0.1-0.5l0.2-0.2l0.3,0.4l0.2,0.5l0,0.6l-0.2,0.4l-0.4,0l0.3,0.3l0.2,0.5l0.1,0.6l0.1,1.2l0,0.3l-0.1,0.3l-0.2,0.4l0,0.2
	l-0.2,0.7l-0.1,0.3l0,0.2l0,0.1l0,0l-0.4,0.4l-0.3,0.2l-0.4,0.1l-0.3-0.1l0.1-0.2l0.1-0.2l0-0.2l-0.1-0.2l0.3-0.8l-0.1-1.1l-0.3-1
	l-0.5-0.4l-0.2-0.1l-0.9-0.8l-2.8-1l-1.5-0.2l-0.2-0.1l-0.2-0.1L258,402l-0.2,0.1l-0.1,0.2l-0.2,0.2l-0.2,0.1l-0.2,0.1h-0.4
	l-0.3-0.1l-0.3,0l-0.4,0.2l-0.3,0.3l-0.2,0.2l-0.1,0.2l-0.1,0.1l-0.5,0l-0.2,0.1l-0.3,0.3l-0.4,0.2l-0.9,0.3l-1,0.9l-0.3,0.2l-0.5,0
	l-0.2,0.1l-0.2,0.1l-0.1,0.3l-0.1,0.6l-0.1,0.2l-0.5,0.2l-0.4-0.2l-0.3-0.4l-0.3-0.2l-0.5-0.1l-0.5-0.4l-0.3-0.1l-0.5,0.1l0,0.4
	l0,0.4l-0.6,0.3l-0.1,0.2l0.1,0.3l0.1,0.2l0.2,0.1l0.6,0.3l-0.2,0.3l-0.3,0.1l-0.6,0l-0.8,0.1l-2.7-0.6l-1.7-0.9l-1.8-0.5l-0.7-0.4
	l-0.3-0.1l-0.5-0.3l-0.4-0.7l-0.6-1.6l0.1-0.6l-0.4-0.5l-0.6-0.3l-0.5,0.1l-0.3-0.3l0.1-0.2l0.2-0.4l0.2-0.3l1.1-0.8l1.4,0.1
	l1.5,0.4l1.3,0.1l0.4-0.2l0.1-0.3l-0.1-1l-0.1-0.1v-0.1l0.1-0.3l0.1-0.1l0.5-0.3l-0.3-0.4l-0.1-0.4l0-0.4l-0.1-0.4l-0.3-0.3
	l-0.3-0.2l-0.2-0.2l0.2-0.3l0.5-0.7l0.2-0.2l0.4-0.2l0.6-0.2l0.1-0.2l-0.2-0.5l0.3-0.5l1.3-0.1l0.5-0.3l0.1-0.3l0-0.3l-0.1-0.3v-0.2
	l0.2-0.1l0.6-0.1l0.4-0.2l0.3-0.3l0.1-0.4l0-0.6l-0.1-0.5l-0.3-1v-0.5l0.2-0.4l0.4-0.2l3.5-0.9l0.5-0.2l0.1-0.6l-0.4-1.3l-0.1-0.7
	l0.2-0.5l0.7-0.8l0.5-0.8l0.2-0.7l-0.1-0.6l-1.2-1.1l-0.4-0.5v-0.4l0.2-0.4l0.1-0.5l0-0.5l-0.4-1.4l-0.2-1.1l0.1-0.8l0.4-0.6l1.5-1
	l1.1-0.4l1.8-1h0.4l0.3,0.4l0.1,0.6l0,2.5l-0.1,0.4l-0.1,0.3l-0.2,0.3l-0.1,0.3v0.3l0.4,0.3l0.5-0.3l0.7-0.8l0.3-0.1l0.2,0.1
	l0.1-0.1l0.2-0.4v-0.3l-0.1-0.6l0.1-0.4l0.4-0.6l0.3,0.1l0.5,1l0.4,0.5h0.3l0.9-1.4l0.4-0.4l0.4-0.2l0.5,0.1l0.1,0.2l0,0.2l-0.1,0.2
	l-0.1,0.2l-0.1,0.2l0,0.2l0,0.2l0.1,0.2l0.3,0.1l0.6,0.1l0.3,0.1l0.3,0.3l0.3,0.6l0.3,0.4l0.3,0.2l0.4,0l0.3-0.1l0.3-0.3l0.2-0.5
	l-0.1-0.7l0.1-0.2h0.6l0.4-0.2l0.2-0.4V372l0.3,0.5l1.1,1l0.4,0.7l0.1,0.3l0,0.3v0.6l0.1,0.2l0.4,0.5l0.4-0.1l0.8-0.7l0.4-0.2
	l0.3-0.1l2.4,0.2l0.9-0.2l0.5-0.5l0.5-0.9l-0.3-0.2l-0.3-0.1l-0.3,0.1l-0.2,0.2l-0.3-0.4l-0.9-0.7l0.2-0.3l-0.3-0.5l-0.1-0.2
	l-0.2-0.1h-0.1l-0.3,0.2l-0.1,0.1l-0.1-0.1l-0.1-0.3l0-0.1l-0.9-0.4l-0.3-0.4l-0.1-0.7l0.4,0l0.5-0.1l0.2-0.6l-0.1-0.3l-0.3-0.6
	l-0.1-0.3v-0.4l0.1-0.3l0.1-0.3l0.1-0.3l0.2-1.8l0-0.5l-0.1-0.2l-0.2-0.4l-0.1-0.2l0-0.3v-0.6l-0.1-0.2l-0.2-0.1l-0.2,0.1l-0.2,0.1
	l-0.2,0l-0.1-0.2l-0.2-0.5l-0.1-0.2l-0.6-0.5l-0.6-0.1l-0.6,0.1l-0.6-0.1l-0.4-0.3l-0.5-0.8l-0.3-0.3l-0.3-0.1l-0.7-0.1l-0.3-0.1
	l-0.2-0.2l-0.3-0.4l-0.2-0.1l-0.5,0.1l-0.1,0l-0.2-0.3l0-0.4l0.1-0.5l0.1-1.1l0.2-0.3l0.3-0.3l0.2-0.4l0-0.5l-0.2-0.4l-0.2-0.3
	l-0.3-0.2l-0.4,0l-0.2,0.3l-0.2,0.4l-0.2,0.2l-0.2-0.2l-0.6-1.2l-0.1-0.1V353l0.1-0.1l0.6,0l0.4-0.1l0.3-0.4l0.1-0.7l-0.2-1.6
	l0.1-0.6l0.5-0.3l0.2-0.5l0-0.7l-0.2-0.7l-0.3-0.5l-0.3-0.3l-0.4-0.2l-0.4,0l-0.4,0.1l-0.2,0.5l-0.1,0.5l-0.3,0.4l-0.4,0.3l-0.3,0.1
	l-0.3,0l-0.3-0.2l-0.3-0.3l-0.3-0.5l-0.1-0.4v-0.4l-0.1-0.5l-0.3-0.4l-0.3-0.1l-0.3-0.1l-0.3-0.2l-0.2-0.3l-0.1-0.4l-0.2-0.3
	l-0.6-0.4l-0.4-0.6l-0.3-0.2l-0.3,0.2l-0.2,0.3l-0.2,0.2l-0.4-0.3l-0.2-0.3l-0.3-0.9l-0.2-0.4l-0.3-1.2l0.3-0.8l0.5-0.7l0.5-0.9
	l0.2-1.1l0-1.1l0.1-0.9l0.6-0.8l0.2-0.4l-0.1-0.3l-0.3-0.2l-0.7-0.3l-0.2-0.2v-0.3l0.2-0.5l0.3-0.3l0.4-0.4l0.3-0.4l0.1-0.4
	l-0.2-0.2l-0.8-0.3l-0.3-0.2l-0.2-0.4l-0.2-1l-0.2-0.5l-0.2-0.4l-0.3-0.2l-0.3-0.1h-0.4l-0.6,0.3l-0.9,1.2l-0.7,0.2l-0.6-0.3
	l-0.7-0.6l-0.7-0.7l-0.5-0.9l-0.3-0.3l-0.1-0.2l0-0.2l-0.2-0.8l-0.3-0.8l-0.1-0.2l0-0.2l-0.1-0.2l-0.1-0.2l-0.6-0.4l-0.7-0.1l-1.4,0
	l-1.8-0.8l-0.7,0l-0.5,0.2l-0.4,1.1l-0.2,0.6v0.5l-0.1,0.3l-0.2,0l-0.4-0.3l-0.3-0.3l-0.6-1.2l0.3-0.4l0-0.5l-0.2-0.4l-0.3-0.2
	l-0.5,0.1l-0.3,0.4l-0.2,0.5l-0.3,0.4l-0.4,0.1l-0.2-0.3l-0.1-0.4l0.1-0.4l0.3-0.4l0.3-0.2l0.2-0.3l0.2-0.6l-0.1-0.6l-0.2-0.3
	l-0.4-0.1l-0.9,0.1l-0.3,0.2l-0.3,0.3l-0.4,0.3l-0.5,0.1l-0.3-0.1l-0.2-0.4l-0.1-0.6l-0.2-0.5l-0.3,0.1L234,319l-0.3,0.1l-0.5,0
	l-0.3-0.2l0.4-1.2l-0.1-0.5l-0.3-0.4l-0.4-0.2l-1.8-0.2l-0.8-0.3l-0.5-0.7l-0.2-0.2l-0.6-1l-0.3-0.3l-1.3-1l-0.7-0.3l-2.5,0
	l-0.4-0.2l-0.1-0.8l-0.4-0.1l-0.5,0.4l-0.2,0.1h-0.8l-0.5,0.6l-1.2,1l-0.3,0.2l-0.3-0.1l-0.6-0.5l-0.4-0.1l-0.7,0.4l-1.2,1.5
	l-0.8,0.4l-0.7,0l-2.1-0.8l-0.4-0.3l-0.2-0.1l-0.2,0.1l0,0.2l0.1,0.3v0.2l0,0.1l0.1,0.2l0,0.2l-0.1,0.1l-0.3-0.1l-0.2,0l-0.1-0.1
	l-0.2,0l-0.2,0.2l-0.8,0.1l-0.7-0.4l-0.7-0.6l-0.7-0.3l-0.2,0.1l-0.1,0.2l-0.1,0.2l-0.2,0.2h-0.2l-0.3-0.1H207l-0.2,0.3l0,0.3
	l0.1,0.4l0.1,0.6v0.6l-0.1,0.4l-0.2,0.2l-0.4,0l-0.4-0.2l-0.3-0.3l-0.2-0.4l-0.3-0.3l-0.4-0.2l-0.1,0.3l-0.1,0.4l-0.7,0.4l-0.2,0.4
	l-0.1,0.4l0,0.3l-0.6,0.3l-2.5,0.6l-0.3,0.1l-1,0.1l-0.3,0.1l-0.7,0.3l-0.4,0.1l-0.4,0l-0.2-0.1l-0.2,1l0,0.7l-0.2,1l-0.3,0.9
	l-0.3,0.6l-0.3,0.3l-0.5,0.5l-0.3,0.3l-0.5,1l-0.2,0.3l-1,0.4l-1.9,0l-1.3,0.4l-1-0.1l-0.3,0.1l-0.6,0.3l-1.1,0.1l-1.3,0.5l-9.9,1.1
	l-0.9,0.6l-1.9,3.3l-0.8,0.8l-1.3,0.6l-2.4,0.4l-0.4-0.3l-0.5-0.7l-0.7-1.2l-0.3-0.4l-0.3-0.3l-1.6-0.6l-0.7-0.4l-0.4-0.4l-0.1-0.4
	l0-0.4l-0.1-0.5l-0.3-0.4l-0.5-0.4l-0.9-0.6l-0.4-0.1l-1.1,0l-1.1-0.3h-0.4l-0.5,0.3l-0.8,0.7l-1,0l-1.4,0.7l-0.4,0L154,329l0,0
	l-0.4-0.1l-0.7-0.7l-0.4-0.2l-1-0.3l-0.3-0.3l-0.6,0l-2,0.8H148l-0.1-0.5l-1-1l-0.3-0.2l-1.4,0.1l-0.5-0.1l-0.8-0.3l-1.3-0.2
	l-0.4-0.1l-0.8,0.2l-0.2,0.1l-0.2,0.2l-0.1,0.2l-0.1,0.2l-0.1,0.2l-0.2,0.1l-0.4,0l-1.3-0.7h-0.1l-0.2,0.1h-0.2l-0.2,0l-0.2-0.1
	l-0.5-0.5l-1-0.8l-0.8-1l-0.4-0.3l-1.4-0.5l-0.5-0.1l-0.4,0.2l-0.4,0.6l-0.5,1.4l-0.3,0.5l-0.9,0.7l-0.3,0.1l-0.3-0.1l-0.3-0.2
	l-0.3-0.2l-0.4-0.2l-0.3,0l-0.2,0.4l0.2,0.6l-0.2,0.4l-0.4,0.3l-0.4,0.1l-0.7-0.6l-0.2-0.4l0.4-0.4l0-0.5l0.1-0.3l0.1-0.3l-0.2-0.6
	l-0.2-0.4l-0.3-0.3l-0.6-0.6l-0.7-0.4l-0.1-0.2l-0.3-0.2l-0.4,0.1l-0.3,0.2l-0.4,0.1h-1.4l-0.3,0.2h-0.1l-0.1-0.1l-0.4-0.7l-0.3-1
	l-0.3-0.6l-1.5-2l-0.1,0l-0.1,0h-0.1l-0.4,0.2l-0.3,0l-0.3-0.1l-0.4-0.2h-0.2l-0.1,0l-0.2,0.1l-0.2,0.1l-0.2,0l-0.1-0.1l-1-1.5
	l-0.2-0.6l0-0.4l0.1-0.4v-0.3l-0.2-0.3l-0.2,0l-0.6,0V315l0.3-0.9l-0.7-0.4l-0.7-0.1l-0.7,0.3l-0.2,0.2h-0.1l-0.5-0.1l0-2.2l0.2-0.5
	l0.1-0.5l-0.2-1.2l0.1-0.6l0.3-0.5l1.3-1.1l0.1-0.2l0.2-0.5l0.2-0.2l0.3-0.2l0.5-0.2l0.3-0.2l0.3-0.4l0.3-0.6l0.1-0.6l0-0.7l0.1-0.4
	l0.2-0.2l0.2-0.2l0.2-0.3l0.2-0.4l0.1-0.2l-0.1-1l0-0.3v-0.2l0.1-0.4l0.2-0.3l0.5-0.4l0.2-0.3l0.1-0.2v-0.4l0-0.2l0.3-0.5l0.4-1.3
	l0.4-0.3l0.8-0.1l0.3-0.3v-0.5l0.1-0.7l0.2-0.7l0.2-0.5l0.4-0.4l0.4,0.1l0.8,0.8l0.5,0.3l0.4,0.1l0.4-0.1l0.7,0.1l0.5-0.2l0.2,0
	l0.2,0.2l0.4,0.5l0.2,0.1l0.4,0.2l0.5,0.4l0.4,0.2l0.2-0.5l-0.1-0.2l-0.3-0.6l-0.1-0.3l0-0.4l0.2-0.6v-0.3l-0.3-0.3l-0.9-0.5
	l-0.4-0.3l-0.6-0.8l-0.7-0.5l0.1,0h0l-0.3-0.2l-0.3,0.3l-0.1,0.1l-0.1-0.2l0.1-0.4l0.3-0.7l0.3-1.1l0.3-0.9l0.1-0.5l-0.3-2.9
	l-0.1-0.5l-0.1-0.2l-0.4-0.5l-0.3-0.4l-0.1-0.2l-0.1-0.4l-0.1-1.3l-0.1-0.5l-0.4-1.1l0.5-1.2l1.5-2.1l0.4-1l0.2-0.3l0.2-0.2l0.4-0.1
	l0.2-0.1l0.3-0.4l1.2-2.3l0.2-0.2l0.2-0.1l0.4-0.1l0.2-0.2l0.1-0.2l0.2-0.6l0.1-0.3l0.8-0.9l2.2-3.2l0.8-0.9l0.7-0.6l0.6-0.9l4.6-5
	l0.9-0.7l1.1-0.8l0.6-0.5l1.6-1.7l0.3-0.4l0.3-0.9l0.2-0.5l0.3-0.3l0.4-0.2l0.7-0.2l3.6-0.1l1.1-0.5l0.5-1l0.1-0.3l0-0.4l0-0.6
	l0.1-0.4l1.3-0.7l0.4-0.4l0.3-0.4l0-0.1l-0.1-0.1l-0.1-0.4l-0.2-1.5l0.5-0.8l-0.5-1.3l-0.2-0.7l0.1-0.7l-0.5-0.1l-0.6-0.3l-0.3-0.5
	l0.3-0.6v-0.2L151,240l-0.5-0.2l-0.3-0.4l0-0.6l0.3-0.6l0.5-0.4l0.6-0.1l0.5,0.3l0.4-0.2h0.7l0.6-0.1l0.3-0.6l-0.3-0.4l-1.7-0.9
	l-1.4-1.3l-0.3-0.5l-0.1-0.4l0-0.3l-0.1-0.3l-0.2-0.3l-0.3-0.2l-0.3-0.1l-0.2-0.1l0.1-0.3v-0.2l-0.2-1.4l-0.2-0.4l-0.5-0.8l-0.3-0.6
	l0.1-0.3l0.3-0.2l-0.2-0.4l-1-1l-1-0.7l-0.5-0.6l-1.1-2.5l-0.3-0.2h-0.4l-0.3-0.2l-0.1-0.7l0.1-0.4l0.3-0.5l0.4-0.4l0.4-0.2
	l-0.1-0.4l0-0.3l0.2-0.2l0.2-0.1l-0.2-0.4l-0.8-1.2l0-0.2l0.3-0.7l-0.3-0.2l-0.4-0.1l-0.5-0.2l-0.1-0.5l0-0.2l0.2,0.2l0.2-0.1
	l0.1-0.5l-0.1-0.3l-0.6-1.6l-0.1-0.3l0-0.3l0.3-0.4l0.2-0.2l0.3-0.1l2-0.5h0.5l1.4,0.4l0.5,0.1l0.8,0.3l0.6,0.7l0.6,0.5l0.8-0.1
	l3-2.7l2.3-1.6l0.6-0.8l0.5-2.1l0.3-0.6l0.7-1.1l0.4-0.5l0.4-0.2l5-0.4l1.2,0.3l0.4,0l5.6-0.9l1.8-1l0.9-0.3l0.9,0l3.4,0.9l6.7,0.1
	l1.7-0.3l4.3,0.8l1.4-0.1l0.6,0.1l1.3,1.2l0.6,0.3l4.7,0.2l0.2,0.1v0.2l-0.1,0.3l0.1,0.3l0.3,0.4l0.3,0.2l4.4,0.2l3.8,1.7l1.3,0.2
	l2-0.7l1.8,0.1l0.8,0.2l0.5,0.3l0.1,0.5l-0.1,0.7v0.9l0.2,0.6l0.3,0.3l0.4,0.1l0.5-0.1l0.6,0.2l-0.1,0.6l-0.3,0.7l-0.1,0.6l0.3,0.3
	l0.4-0.1l0.8-0.3l1.2,0.2l0.4,0l0.4-0.2l0.6-0.6l0.4-0.2l0.7,0l2.2,0.9l1.1,0l0.3,0.2l0.3,0.7l-0.2,0.8l-0.7,1.6l0.1,0.3l0.3,0.3
	l0.3,0.3l0.3,0.1l0.3-0.1l0.2-0.2l0.9-1.3l0.1-0.2l0.1-0.4l0-0.4l0-0.4v-0.4l0.1-0.7l0.3-0.5l0.4-0.4l0.5-0.1l0.4,0.2l1.2,1.3
	l0.4,0.2l0.4,0.1h2l0.4-0.2l0.5-0.4l0.7-1.3l0.4-0.6l0.4-0.4l0.5-0.2l0.4,0l0.3,0.3l0.1,0.3v0.3l0,0.3l0.2,0.4l0.3,0.3l0.6,0.4
	l0.3,0.3l0.1,0.3l0.2,0.9l0.1,0.3l0.3,0.1l0.3-0.2l0.5-0.5l1-0.7l0.5-0.2h0.6l1.8,0.4l0.5,0.2l0.2,0.4l0.1,0.7l0.3,1.8l0.1,0.5
	l0.2,0.3l0.3,0.2l0.3-0.1l0.3-0.2l0.3,0l0.2,0.4l0.2,0.6l0.2,0.3l0.4-0.4l0.1-0.5l-0.1-1.2l0.1-0.5l0.4-0.9l0.6-0.7l0.6-0.5l0.6-0.4
	l0.6-0.1h1.2l0.5-0.2l0.4-0.4l0.5-1l0.4-0.4l0.4-0.2l0.4,0l0.8,0.2l0.5,0.3l0.3,0.4l0.4,1.2l0.7,1l0.2,0.5l0.1,0.8l-0.2,0.8l0.1,0.4
	l0.3,0.3l0.4,0.5l0.2,0.6l0.2,0.7l0.3,0.6l0.5,0.3l0.4-0.2l0.8-0.7l0.5-0.2l0.9,0.4h0.4l0.3-0.5l0.3-0.8l0.2-0.4l0.3-0.2l0.5-0.1
	l0.5-0.2l0.3-0.4l0.2-0.4l0.4-0.4l0.4-0.2l0.5-0.1l0.4,0.1l0.4,0.3l0.3,0.6l0.2,0.5l0.3,0.4l1.8,0.3l0.4-0.1l0.2-0.2l0.3-0.6
	l0.3-0.2l0.2,0l0.3,0.2h0.3l1.2-0.6l0.5-0.2l2.8-0.1l0.6,0.2l0.6,0.4l0.8,1l0.3,0.3l1,0.5l0.3,0.3l0.2,0.2l0.1,0.2l0,0.3v0.3l0,0.3
	l-0.2,0.7l-0.1,0l0.2,0.3l0.6,0.8l0.3,0.3l0.3,0.1h0.6l0.3,0.1l0.3,0.3l0.5,0.7l0.3,0.1l0.3,0l0.3,0.1l0.3,0.2l0.2,0.3l0.2,0.3
	l0.2-0.1l0.1-0.2l0-0.8l0.1-0.1l0.4-0.6l0.1-0.5l0.6-0.5l0.6-0.6l-0.1-0.9l0.3-0.1l0-0.2l-0.2-0.2l-0.1-0.2l-0.2-0.9L284,219
	l-0.3-0.2h-0.2l-0.2-0.1l-0.1-0.4l0.1-0.4l0.2-0.2l0.2-0.1l0.3,0.1v-0.2l-0.2-0.1l-0.2-0.1l-0.2-0.3l-0.1-0.4l0.1-0.3l-0.1-0.3
	l-0.2-0.2l-0.3-0.2l0.2-0.2l0.1-0.2l0.2-0.4l-0.3-0.2l-0.7-0.2l-0.2-0.3v-0.2l0.1-0.1l0.1-0.1l0.1-0.1l0.2-0.1v-0.2l-0.2-0.1
	l-0.4-0.3V213l0.6-0.5l0.3-0.1l-0.1-0.3l-0.1-0.1l0.1-0.1l0.2-0.3l0.2-0.1L283,211l0.2-0.7l-0.1-0.4l0.3-0.1l0.6,0l0.2-0.1l0.1-0.3
	l0-0.4l0.1-0.4l0.2-0.3V208l-0.2,0l-0.4-0.2l0.3-0.3l0.5-0.3l0.4-0.4l0-0.5L285,206v-0.1l0.1-0.1l0.1-0.2l0.4-0.6l0-0.1l0.1-0.1
	l0.1-0.2l0.1-0.2l0.4-0.2l0.1-0.3v-0.3l0.1-0.2l0.2-0.1l0.6,0.1l0.2-0.1l0.2-0.2l0.3-0.4v-0.2l-0.1-0.1l-0.1-0.2V202l0.6-0.2
	l0.3-0.2l0.3-0.2l0.2-0.3l0.2-0.3v-0.3l0-0.2l0.2-0.2l0.2-0.1l0.1-0.1l0.1,0.1l0.1,0.2l0.5,0l0.2-0.4l-0.2-0.5l-0.6-0.1l0.1-0.2
	l0.1-0.2l0.1-0.2l0.1-0.2l-0.1-0.6l0.3-0.4l0.5-0.2l2.8-0.2l0.8,0.1l0.5,0.3l0.9,0.8l0.5,0.2l0.5-0.2l0.3-0.6l0.3-0.7l0.4-0.5
	l1.6-0.7h1.8l3.5,0.7l2.3-0.1l1.2-0.1l0.7,0.1l0.5,0.5l0.1,0.5v0.6l0.1,0.5l0.4,0.2l0.3-0.1l1.1-0.5l0.7-0.1l1.2,0.3l0.4,0l2.8-1.3
	l0.9-0.7l0.6-1.3l0.3-2l0.2-0.6l0.2-0.2l0.3-0.2l0.2-0.2l0.1-0.4l-0.1-0.3l-0.4-0.7l-0.1-0.4l0.3-1.1l0.8-0.2l1.7,0.7l1-0.3l4,2.1
	h0.6l1.2-0.3h0.6l0.3,0.2l0.6,0.5l0.4,0.1l0.4-0.2l2.1-1.9l0.4-0.2l0.2,0l0.3,0.2l0.2-0.1l0.2-0.2l0.2-0.5l0.2-0.1l0.4-0.2l0.3-0.3
	l0.5-0.7l0.3-0.2l0.3-0.1l2,0.4h1.3l0.4,0.1l0.6,0.4l0.3,0.2l0.4,0l0.3-0.2l0.3-0.3l0.3-0.2l0.4,0.6l-0.1,1.3l0.4,0.5l0.4-0.1
	l1.4-1.4l1.8-0.8l0.9-0.2l0.9,0l0.5,0.2l0.2,0.3l0.1,0.5l0.3,0.6l0.4,0.4l0.8,0.5l0.4,0.5l0.5,1.1l0.3,0.4l1.3,0.9l0.3,0.4l0.3,0.5
	l0.2,0.4l0.1,0.3l0.1,0.3v0.4l-0.4,0.7v0.2l0.1,0.6l0.1,1.1l0.1,0.6l0.3,0.6l0.4,0.7l0.1,0.6l-0.2,0.5v0.3h1l0.4,0.3l0.8,1l0.1,0.1
	l0.3,0.2l0.1,0.1l0,0.2l0.1,0.5v0.1l0.2,0.1l0.4-0.2h0.2l0.4,0.3l0.7,0.8l0.4,0.3l0.8,0.8l0.6,1.3l0,1.4l-0.8,0.9l-0.4,0.1l-1.2,0
	l-3.4,0.8l-0.8,0.5l-0.2,0.8l0.2,0.3l0.7,0.2l0.3,0.2l0.1,0.2l0.1,0.7l0.1,0.3l0.1,0.3l0.8,1l0.3,0.5l0.2,0.6l0,0.7l0,0.3l-0.2,0.6
	l-0.1,0.3l0,0.3l0.1,0.3l0.1,0.3l-0.1,0.3l-0.1,0.3l-0.5,0.1l-0.1,0.2l0.1,0.3l0.2,0.3l0.4,0.4l0.3,0.2l0.3,0.2l0.4,0.1h0.3l0.4-0.2
	l0.2,1.1l-0.5,1.1l-0.8,0.9l-1.2,0.8l1.4,0.6l0.5,0.1l0.4-0.2l0.8-0.6l0.7-0.2l0.8,0.1l1.4,0.5l0.7,0.3l1.3-0.2l0.6,0.1l0.3,0.3
	l0.1,0.4l0.1,0.5l0.2,0.5l0.3,0.3l0.4,0.1l1.5,0.1l1.4-0.3l1.6-0.7l0.9-0.6l0.3,0l0.4,0.2l0.4,0.3l0.4-0.1l0.4-0.2l0.4-0.1l0.4,0.2
	l0.3,0.3l0.2,0.5l0.5,3l0.4,1.1l0.6,0.6l0.7,0.1l1.4-0.3l0.7,0.1l0.4,0.1l0.4,0.2l0.2,0.4l-0.2,0.6l-0.3,0.3l-1.1,0.2l0.1,0.4v0.9
	l0.1,0.3l0.2,0.2l0.5,0.1l0.3,0.2l0.3,0.4l0,0.4l-0.1,0.4l0,0.5l0.2,0.4l0.4,0.6l0.2,0.4l0.1,0.5l-0.1,0.4l0,0.3l0.3,0.3l0.5,0.3
	l0.2,0.2l0.2,0.3l0.2,0.9l-0.1,0.8l0,0.7l0.5,0.6l-1.6,0.7l-0.3,0.4l0,0.4l1,3.9l0.4-3.1l0.7,0.3l0.4,0.1l0.4,0.2l0.4,0.3l0.3,0.5
	l0.2,0.7l0,0.6l0.1,0.5l0.4,0.5l0.4,0.3l0.4,0.2l0.4,0.1l0.4,0l0.5-0.2l0.3-0.3l0.2-0.4l0.3-0.4l0.2-0.1h0.4l0.2-0.1l0.2-0.2
	l0.4-0.6l0.3-0.2l0.4-0.1l1.9-0.2l3.5-2.6l0.6,0.3l0.2,0.6l0.6,0.3l2,3.2l0.5,0.2l0.5,0l0.5-0.2l0.5-0.3l0.4-0.4l0.2-0.1h0.3
	l0.2,0.1l0.4,0.3l0.5,0.1l0.6,0.4l0.6,0.2l0.2,0.1l0.3,0.2l0.1,0.1l-0.1,0.1l0,0.7l-0.1,0.3l0.1,0.3l0.3,0.3l0.4,0.2l0.5,0.1
	l0.5-0.1l0.4-0.3l0.2-0.3l0.3-0.7l0.2-0.3l0.3-0.3l3.3-2l1.3-0.5l1.3-0.1l1.4,0.2l2.9,5.9l0.6-0.5l1.2-1.2l0.6-0.3l2-0.3l0.4,0.2
	l0.3,0.8l0.3,1l0.3,0.8l1.8,0.9l0.6,0.7l0.1,1.3l-0.2,0.8l-0.1,0.3l0,0.3l0.2,0.2l0.7,0.7l1.9,3l0.7,0.5l1.6,0.7l0.8,0.5l0.7,0.6
	l0.6,0.8l0.7,1.2l0,0.1l0.3-6.2v0.5l0.1,0.2l1.3-0.9l0.3-0.1l0.2,0.1l0.4,0.3l0.2,0.1l1-0.7l0.1-1.4l-0.2-1.5l0.2-0.9l0.3-0.1
	l1.3,0.1l0.6-0.1l0.4,0.1l0.3,0.4l0.6,1.8l0.2,0.4l0.4,0.2l0.9,0.1l0.4,0.2l0.5,0.3l0.7,0.3l1.5-0.3l1,0.2l0.2-0.1l0.2-0.1l0.5-0.2
	l0.1-0.1v0.1l0.2,0.6l0.1,0.5l0.1,0.3l0.1,0.1l1.2,0.9l2.1,0.6l0.7,0.6l0.5,0.8l0.5,0.5l1.9-0.1l0.3-0.1l0.4-0.3l0.6-1l0.4-0.4
	l0.8-0.3l0.5,0.5l1.1,2.9l0.5,0.6l0.6,0.4l0.8,0.2l0.8-0.2l0.8-0.4l0.8-0.2l0.7,0.5l0.4,0.2l1.2,0.1l0.3,0.3l0.2,0.7l0.3,1.4
	l0.5,1.1l0.6,0.4l0.7,0.2l0.8,0.4l1,1l0.4,0.2l0.6,0l0.6-0.1l0.6-0.2l0.5-0.3l1.2-1.2l0.5-0.2h0.4l2,0.5l0.3,0.3l-0.1,0.6l-0.3,0.4
	l-0.8,0.5l-0.4,0.3l-0.4,1l0.1,1l0.4,0.9l0.8,1.3l0.9,1.1l0.2,0.5L475.8,279z M324.3,384.1l0.2-0.2h0.1l0.2,0.2l2.9,0.4l1.4-0.3
	l0.6,0l0.6,0.5l0.8-0.4l0.5-0.1l0.2,0.3l0.2,0.2l0.9-0.1l0.3,0.4l-0.4,0.4L324.3,384.1z"/>
<path id="text_x5F_2_x5F_" class="st3" d="M377.2,500.5C266.5,542.9,142.3,487.5,100,376.7S113,141.9,223.8,99.5
	S458.6,112.5,501,223.3S487.9,458.1,377.2,500.5z"/>
<text id="text_1_"><textPath  xlink:href="#text_x5F_2_x5F_" startOffset="10.319%">
<tspan  class="st0" style="font-family:'Roboto-Bold'; font-size:63.1584px; letter-spacing:10;">ФЕДЕРАЦІЯ  РОБОТОДАВЦІВ  ЖКГ УКРАЇНИ    </tspan></textPath>
</text>
<rect x="362.5" y="291.9" class="st0" width="11.8" height="8.1"/>
<rect x="351" y="309.4" class="st0" width="14.4" height="10.6"/>
<rect x="344" y="325.3" class="st0" width="11" height="14.6"/>
<rect x="363.8" y="338.7" class="st0" width="20.3" height="8.2"/>
<rect x="351" y="353.3" class="st0" width="12.8" height="12.8"/>
<g>
	<path class="st0" d="M300.5,586.2c-76.5,0-148.3-29.8-202.4-83.8C44,448.3,14.2,376.5,14.2,300c0-76.5,29.8-148.3,83.8-202.4
		C152.1,43.5,224,13.8,300.5,13.8c76.5,0,148.3,29.8,202.4,83.8c54.1,54.1,83.8,125.9,83.8,202.4c0,76.5-29.8,148.3-83.8,202.4
		C448.8,556.5,376.9,586.2,300.5,586.2z"/>
	<path class="st0" d="M300.5,16.8c156.4,0,283.2,126.8,283.2,283.2S456.9,583.2,300.5,583.2S17.2,456.4,17.2,300
		S144.1,16.8,300.5,16.8 M300.5,10.8c-39,0-76.9,7.6-112.6,22.7c-34.4,14.6-65.4,35.4-91.9,62S48.5,153,34,187.4
		C18.9,223.1,11.2,261,11.2,300s7.6,76.9,22.7,112.6C48.5,447,69.4,478,96,504.5s57.5,47.4,91.9,62c35.7,15.1,73.5,22.7,112.6,22.7
		s76.9-7.6,112.6-22.7c34.4-14.6,65.4-35.4,91.9-62s47.4-57.5,62-91.9c15.1-35.7,22.7-73.5,22.7-112.6s-7.6-76.9-22.7-112.6
		c-14.6-34.4-35.4-65.4-62-91.9s-57.5-47.4-91.9-62C377.4,18.4,339.5,10.8,300.5,10.8L300.5,10.8z"/>
</g>
<g id="building_16_">
	<rect id="building_17_" x="222.6" y="266.6" class="st1" width="51.8" height="167.8"/>
	<g id="windows_8_">
		<rect x="229.7" y="289" class="st0" width="8.4" height="13.3"/>
		<rect x="242" y="281.2" class="st0" width="11.7" height="11.7"/>
		<rect x="260.5" y="281.2" class="st0" width="9.8" height="14.4"/>
		<rect x="251.4" y="300" class="st0" width="10.1" height="10.1"/>
		<rect x="260.5" y="314.3" class="st0" width="9.7" height="11.7"/>
		<rect x="261.6" y="330.8" class="st0" width="9.2" height="9.2"/>
		<rect x="238.1" y="317.8" class="st0" width="13" height="13"/>
		<rect x="247.9" y="335.4" class="st0" width="8.6" height="11.6"/>
		<rect x="253.7" y="378.2" class="st0" width="7.9" height="12.9"/>
	</g>
</g>
<g id="building_14_">
	<rect id="building_15_" x="282.6" y="244.9" class="st1" width="51.8" height="187.6"/>
	<g id="windows_7_">
		<rect x="295.9" y="278.6" class="st0" width="8.4" height="13.3"/>
		<rect x="317.7" y="268.3" class="st0" width="12.5" height="14.1"/>
		<rect x="295.9" y="260.8" class="st0" width="11.4" height="12.6"/>
		<rect x="284.8" y="251.6" class="st0" width="8.1" height="10"/>
		<rect x="304.3" y="294.8" class="st0" width="14.6" height="14.6"/>
		<rect x="284.8" y="301" class="st0" width="13.8" height="10.7"/>
		<rect x="286.4" y="315.1" class="st0" width="10.3" height="10.3"/>
		<rect x="297.3" y="325.3" class="st0" width="10" height="10"/>
		<rect x="304.3" y="340" class="st0" width="12.2" height="10.6"/>
		<rect x="317.7" y="328" class="st0" width="10" height="11.9"/>
		<rect x="288.2" y="362" class="st0" width="10.4" height="10.4"/>
	</g>
</g>
<g id="building_12_">
	<rect id="building_13_" x="339.3" y="281.2" class="st1" width="48.9" height="187.6"/>
	<g id="windows_6_">
		<rect x="371.3" y="302.8" class="st0" width="12.9" height="13.3"/>
	</g>
</g>
<path class="st2" d="M300.5,16.8C144.1,16.8,17.2,143.6,17.2,300s126.8,283.2,283.2,283.2S583.7,456.4,583.7,300
	S456.9,16.8,300.5,16.8z M314.7,381.4l-0.8-0.4l-7.3-1.6l-3.2-1.2l-0.6-0.6l-0.6-0.9l-0.2-0.5l-0.2-0.7v-0.5l0.4,0.2l0.3,1.3
	l0.3,0.9l0.5,0.6l0.8,0.5l6.5,1.6l2.6,0.6l1.7,0.7l0.3,0.2L314.7,381.4z M475.8,279l-0.3,1l0,1.1l-0.2,0.3l-0.5,0.3l-0.4,0.3
	l-0.7,1.1l-0.4,0.4l-1.2,0.8l-0.6,0.5l-0.4,0.7l-0.1,0.4l0.1,1l-0.1,0.3l-0.2,0.2l-0.3,0l-0.6-0.1h-0.6l-1.7,0.6l-1-0.1l-0.4,0.3
	l-0.2,1.6l0.3,0.4l0.4,0.3l0.4,0.4l0.3,0.6l0.2,0.4l0.2,0.3l0.5,0.2l1.6,0.4l0.7-0.1l0.2,0.1l0.2,0.2l0.4,0.5l0.3,0.1l0.4-0.2
	l0.4-0.5l0.4-0.4l0.5,0.1l0.4,0.5l0.1,0.6l-0.3,0.6l-0.4,0.5l-0.9,0.7l-0.8,0.1l-2.2-0.9l-0.5,0l-0.4,0.2l-0.4,0.5l-0.2,0.3
	l-0.1,0.4l-0.2,0.3l-0.5,0.2l-0.2,0.3l-1.2,4.1l-0.2,0.8l0.8-0.1l0.4-0.2l2.4,0.3l0.5,0.3l0.4,0.5l0.2,0.8l0,0.2l0.1,0.2l0.1,0.1
	l0,0.1l-0.1,0.3l-0.2,0.1l-0.2,0l-0.1,0l0.1,0.5l0.2,0.3l0.2,0.2l0.6,1.4l0.2,0.8l0.2,0.4l0.2,0.3l-0.5,0.5l-0.4,0.5l-1.4,1.2
	l1.4,0.9l0.4-0.1l1.1-0.4l0.4,0.1l0.3,0.5l-0.1,0.6l-0.3,0.6l-0.4,0.4l-1,0.7l-0.4,0.5l-1,1.9l-0.3,0.6l-0.1,0.7l0.3,0.9l0,0.3
	l-0.1,0.1l-0.1,0l-1.1,0.2l-0.2,0.2l-0.2,0.3l0.1,0.2l0.2,0.2l0.2,0.3l0.3,0.7l0,0.3l-0.1,0.5l-0.1,0.2l-0.2,0.5l-0.1,0.3v0.2
	l0.1,0.4l0,0.2l-0.2,0.9l-0.3,0.8l-0.5,0.5l-0.7,0.1l-2-0.5l-0.6-0.1L463,325l-0.6-0.1l-0.5-0.2l-0.9,0.3l-0.5,0l-0.4-0.2l-0.7-0.5
	l-0.4-0.1l-3,0.1l-0.8,0.2l-0.4,0l-0.4-0.1l-1.1-0.7l-3.3-0.1l-0.9,0.4l-0.7,0.9l-0.5,1.2l-0.4,1.4l-0.2,1.3l-0.2,0.5l-0.4,0.1
	l-0.7-0.3l-0.3,0.1l-0.4,0.3l-0.8,0.9l-0.4,0.3l-0.5,0.2l-4.2,0.6l-0.7,0.5l-0.5,0.9l-0.4,1l-0.3,1l0.1,2.1l-0.1,0.8l-0.5,0.9
	l-0.6,0.8l-0.3,0.5l-0.1,0.5l0.3,0.3l0.4,0.1l0.8-0.1l0.4,0l0.3,0.2l0.2,0.3l-0.1,0.6l-0.3,0.4l-0.4,0.3l-0.5,0.2l-0.4,0.3l-0.4,0.7
	l-0.1,0.9l0.1,0.9l0.3,0.8l-0.4,0.4l-1.1,1.5l-0.7,0.3l0.5-0.9v-0.5l-0.5-0.2l-0.7-0.5l-0.1,0.1l-0.1,0.1l-0.5,0.3l-0.2,0.1
	l-0.8-0.3l-0.5-0.1l-0.2,0.1l-1.8-0.3l-2.2,0.8l-0.9,0l-2.6-0.5l-0.7,0.3l-1.3,1.4l-2.1,3l-0.5,1l-0.3,0.5l-0.5,0.2l0.1-0.7
	l-0.5-0.6l-0.7-0.4l-0.7-0.1l-0.4,0.1l-0.9,0.7l-2.3,7.7l-0.4,0.1l-0.2,0.1l-0.7,0.6l-0.2,0.1l-0.7,0.3l-1.1,1l-0.7,0.1l0.2,0.7
	l-0.3,0.7l-0.4,0.7l-0.2,0.7l-0.2,0.8l-0.4,0.8l-0.5,0.5l-0.5-0.2v-0.2h0.2l0.4,0.2l0.4-0.8l0.3-1v-0.5l-0.2-0.1l-0.7-0.9l-0.3-0.2
	l-0.7-0.2l-0.3-0.2l-0.3,0.2l-0.4,0l-0.6-0.2l-0.3,0.1l-0.2,0.2l-0.2,0.2l-0.2,0.1h-1.3L402,364l-1,0.2l-0.7,0.3l-0.6,0.5l-1.4,1.5
	l-0.4,0.7l-0.1,0.9h-0.2v-0.4l-0.1-0.1l-0.2,0.1l-0.2,0.1l0,0.2l0,0.1l-0.1-0.3l0.1-0.1l0-0.2v-0.2L397,367l-0.1-0.1l-0.2-0.4
	l-0.1-0.1l-0.1-0.1l-0.4-0.2h-0.4l-0.8,0.2l-1.4-0.2l-2.8,0.5l-0.5,0l-1.5,0.9l-1.1,0.6l-0.6,0.5l-1.6,1.9l-0.7,0.6l-2.4,1.2
	l-0.4,0.3l-0.3,0.4l-0.6,0.9l-0.3,0.3l-0.7,0.5l-0.3,0.3l-1.9,3.2l-0.4,0.5l-1.1,2.2l-0.5,0.7l-0.5,0.5l-0.8,0.3l-0.5,0.4l-0.7,0.2
	l-0.5,0.4l-0.8,0.4l-0.4-0.1l0.1-0.3l0.6-0.7l0.7-0.5l-0.1-0.1l-0.1-0.3l2.1-0.6l1-0.6l0.6-1.1l0.5-0.5l0.2-0.5l0.6-1l0.7-0.8
	l0.3-0.5l0.1-0.7l-0.4,0.4l-0.4,0.3l-0.4,0l-0.5-0.4l-0.2-0.7l0.1-0.8l0.4-1.1l-0.2-0.1l-0.3,0l-0.2-0.1l-0.2-0.1l-0.3-0.3l-0.3-0.2
	l-0.3-0.4l-0.2-0.5l-0.1-0.5l-0.4,0.6l0.2,0.6l0.4,0.5l0.2,0.4l0.1,0.4l0.1,0.2l0.1,0.3l-0.1,0.5l-0.2,0.3l-0.7,0.7l-1.2,1.9
	l-0.7,0.8l-0.9,0.6L371,379h-0.2l-0.3-0.1l-0.1-0.2l0-0.2l-0.1-0.1l-0.2,0.1l-0.2,0.3l0,0.3l-0.1,0.3l-0.9,0.4l-0.1,0.1l-0.4,0.5
	l-0.1,0.3l0,0.3l0,0.2l0.1,0.5l0.1,1.9l0.1,0.4l0.2,0.5l0.7,3.6l0.2,0.4l0.2,0.3l0.2,0.4l1.1,2.9l1.7,3.5l5.8,8.6l3,2.1l0.8,0.1
	l3.6-1l0.4-0.3l0.6-0.6l0.1-0.3l0-0.3l0.1-0.2l0.3-0.1l0.1-0.1l0.3-0.4l0.1-0.1l0.1-0.5l0.2-0.5l0.3-0.4l0.3-0.2l0.5,0.1l0.1,0.3
	l-0.2,0.5l-0.1,0.5l0.2,0.4l0.4,0.3l1.5,0.9l0.8,0.3l0.7-0.2l0.6-0.8l0.3-0.9l0.1-0.1l0.6-0.4l0.4-0.4l0.4-0.2l2.3,0l0.3-0.3
	l0.3-0.3l0.3,0.1l0.2,0.4l-0.2,0.5h0.3l0.2-0.2l0.2-0.2l0.2-0.1l0.4,0.1l0.6,0.4l0.4,0.1l1.2-0.3l0.4,0.1l0.5,0.7l0.3,0.3l0.3-0.1
	l0.4-0.4l0.3-0.1l0.3,0.2l0.3,0.4l0.4,1l0.2,0.7L405,405l-0.7,0.2h-0.3l-0.2-0.1l-0.6-0.3l-0.5-0.1l-0.4,0.1l-0.3,0.3l-0.1,0.6
	l0.1,0.2l0.1,0.1l0.1,0.1l-0.1,0.3l-0.2,0.1l-0.5,0l-0.2,0.1l-0.3,0.4l-0.2,0.6l-0.2,0.6l-0.2,1.7v0.6l0.1,0.6l0.6,0.6l0.3,0.4
	l-0.1,0.4l-0.3,0.3l-1.4,0.5l-1.8,0.1l-0.2,0.1l-0.2,0.1l-0.1,0.2l-0.1,0.5l-0.1,0.2l-0.4,0.1l-1.8-0.4l-1.1-0.7v0.2l-0.6-0.3
	l-0.5,0.5l-0.4,0.7l-0.3,0.3l-1.5-0.1l-1.4,0.3l-0.4-0.2l-0.2-0.6l-0.1-0.3l-0.6-0.7l-0.2-0.2l-1.3-0.8l-1.5-0.6l-0.9-0.2h-0.9
	l-0.8,0.2l-0.7,0.4l-1.1,0.9l-0.2,0.2l-0.1,0.3l-0.1,0.2l-0.1,0.2l0.1,0.3l0.1,0.1l0.6,0.3v0.2l-0.3,0.1l-0.7-0.1l-0.3,0.1l-0.2,0.3
	l0,0.4l0.1,0.9l-1-0.8l-0.1,0.1l-0.2,0.2l-0.1,0.1l-0.5-0.3l-0.4,0.3l-0.5,0.9l-0.4,0.3l-0.9,0.2l-0.4,0.2l-0.5,0.9l-0.4,1.3
	l-0.6,0.9l-0.9-0.1l-0.2-0.3l-0.2-0.4l-0.3-0.4l-0.4-0.2l-0.7,0l-0.2,0l-0.2,0.1l-0.2,0.2l-0.1,0.2l-0.2,0.1L370,420l-0.7-0.2
	L369,420l-0.3,0.2l-1.4-0.3l-0.7,0.3l-1.4,1l-0.8,0.3l-1.6,0.4l-0.7,0.3l-0.5,0.5l0-0.1v-0.1l0,0h-0.1l-0.8,1.2l-0.1,0.2l-0.2,0.3
	l-0.7,1.2l-0.8,2.1l-0.2,0.4l-0.2,0.1l-0.5-0.1h-0.3l-0.2,0l0,0.1l-0.1,0.1v0.2l-0.1,0.1l-0.4,0.7l-0.3,0.2l-1,0.2l-0.3,0.3
	l-0.2,0.4l-0.3,0.5l-0.2,0.2l-0.7,0.5l-0.3,0.1l-0.5,0.1l-2.2,1l-0.4,0.1l-0.5-0.1l-1.3-0.5h-0.3l-0.4,0.1l-0.2,0l-1.3,0l-0.4-0.1
	l-1.5-0.7l-0.3-0.3l-0.1-0.5l-0.1-0.3l-0.6-0.8l-0.2-0.2l-0.4,0l-0.4,0.1l-0.4,0l-0.4-0.3l-0.3-0.3l-2.1-1.5l-0.2-0.3l0-0.3l0.1,0.1
	l0.6-0.1l0.2-0.1l0.5-0.3l0.2-0.1l0.4,0l0.2,0l0.2-0.1l0.3-0.1l1,0l0.4-0.2l-0.3-0.1l-0.7-0.1l-0.2-0.2l0-0.4l0.2-0.4l0.3-0.3
	l0.2-0.3l0.1-0.5l0-0.3l-0.2-0.6l-0.1-0.8l-0.1-0.4l-0.2-0.4l0.1-0.1l0.1-0.1l0.1-0.2l0.1-0.6l0.2-0.5l0.3-0.4l0.8-0.3l0.2-0.4
	l0.1-0.5l0.1-0.6v-0.7l-0.2-1.1l-0.1-0.5l-0.1-0.2l-0.4-0.7l-0.1-0.3l-0.1-0.7l-0.3-1.2l-0.5-0.7l-1.4-0.9l-1.1-1l-0.4-0.2l-0.8,0.1
	l-0.8,0.3l-0.7,0.4l-0.5,0.1L337,410l-0.2-0.4l-0.4-0.2l-0.9-0.3l-0.3-0.3l-0.7-0.9l-0.5-0.3l-0.2-0.3l-0.2-0.4l-0.2-0.1l-0.4-0.2
	l-0.2-0.1l-1.3-1.2l-0.7-0.5l-0.8-0.3l-3-0.3l-0.4,0.1l-0.3,0.2l-0.7,0.8l-0.3,0.2h-1.4l-0.4-0.2l-0.7-0.4l-0.5-0.1l-0.6-1.6
	l-0.1-0.4l0.3-0.8l0.6-0.6l2.4-1.8l0.4-0.1l0.5-0.1l0.4-0.1l0.3-0.2l0.3-0.2l0.2-0.2l0.1-0.2l0.2-0.2l0.3-0.1l0.2,0l0.4,0.2l0.2,0
	l0.3-0.1l0-0.2l-0.1-0.3l0-0.2l0-0.3l0.1-0.2l0.2-0.2l0.6-0.6l1.4-0.9l4.6-2.1l0.3-0.2l0.1-0.4l-0.1-0.1l-0.2-0.1l-0.2-0.2l0-0.3
	l0.2-0.2l0.2,0.1l0.3,0.4l0.7,0.4l0.7-0.1l1.5-0.9l0.7-0.3l0.1-0.2l0.6-0.7l0.3-0.1l0.8-0.6l0.3-0.1l0.1,0.1l0.4,0.3l0.3,0.1l0.2,0
	l0.5-0.2l0.5-0.6l0.4-0.3l0.2-0.1l0.2,0l0.2,0.1l0.2,0.1l0.2,0.2l0.1,0.2l0.1,0.2l0.2,0l0.4-0.1l0-0.3l-0.1-0.7l0.1-0.5l0.3,0.1
	l0.3-0.2l0.7-0.2l0.4-0.2l-0.4-0.3l-0.4-0.2l-1.1-0.3l-0.5,0.1l-0.2,0.1l-0.2,0.2l-0.1,0.1l-0.3-0.2l0.4-0.5l0.2-0.3l0.1-0.1
	l-0.2-0.1l0-0.2l0.1-0.3l0.2-0.3l0-0.2l-0.3-1l0-0.3l0.2-0.3l0.2-0.3l-0.1-0.5l-0.6-1.2l-0.3-0.3l-0.5,0.2l-0.4,0.4l-0.4,0.4l0,0.4
	l0.5,0.4v0.2l-0.5,0l-0.5,0.2l-0.2,0.4l0.4,0.6h-0.2l-0.4-0.2h-1.2l-0.2-0.2l-0.6-0.9l-0.5-0.5l-0.5-0.1l-0.4,0.6l-0.1-0.2l-0.1,0
	h-0.1l-0.1,0l0.3-0.3l0.2-0.4l-0.1-0.3l-0.5-0.2l-1.6,0.2l0.1-0.4l0.1-0.4l0.2-2l-0.5,0.5l-0.3,0.8l-0.4,0.7l-0.6,0.3l-0.2,0
	l-0.3,0.1h-0.2l-0.2-0.1l-0.4-0.3l-1.2-0.6l0.2,0.8l-0.3,0.4l-2.1,0.4H330l-0.2,0l-0.2-0.1l-0.2,0l-0.5,0l-0.2,0l-1.1-0.4l-0.5-0.1
	l-0.3,0.1l-0.8,0.4l-2.5,0.5l-0.2,0.1l-0.2,0.2l-0.3,0.4l-0.2,0.1l-0.8,0.1l-4-1.2l-0.5-0.3l-0.3,0l-0.1-0.1l0-0.1l-0.1-0.4l0-0.1
	l-0.1-0.2l-0.1-0.4l-0.1-0.2l0.4-0.4l0.1-0.2l0.1-0.3l-0.6,0.3l-0.5,0.1l-0.5-0.1l-0.9-0.3l-0.3-0.1l-0.3-0.2l-0.8-1l-0.6-0.5
	l-0.6,0.3l-1-0.5l-1.7-1.3l-0.1,0.4l0.1,0.4l0.1,0.3l-0.2,0.1l-1.3-0.1l-0.4-0.1l-0.3-0.2l-0.3-0.3l-0.1-0.5l0.3-0.4l0.4-0.3
	l0.3-0.2l0.4-0.1l1.1,0.3l1.5-0.3l0.2-0.1l1.1-1l0.3-0.1h0.3l0.2-0.1l-0.2-0.4l-0.9-1.3l-0.3-0.1l-0.8,0.1l-0.9-0.2l-2.8-1.2
	l-0.5-0.1l-0.5,0l-0.3,0.2l-0.3,0.3l-0.1,0.2l-0.1,0.2l0,0.3l0,0.9l-0.5-1.2l-0.2-0.2l-0.3-0.1l-2.4-2.4l-0.3-0.7l0.6,0.5l0.5,0.6
	l0.3,0.2l3.5-0.3l0.7,0.2l1.2,0.7l0.3,0.1h1.7l1.7,0.4l1.2-0.2h0.4l2.2,0.5l1.1,0.7l0.8,0.2l0.9-0.1l0.8-0.3l0.6-0.6l-0.4-0.5
	l0.6-0.8l1.4-1.2l0.4-0.3l0.9-0.1l0.4-0.2l0.3-0.3l0.3-0.2l0.3-0.3l0.2-0.5l-0.5,0.2l-0.5,0.4l-0.6,0.3l-0.5-0.1l-2.7,1.6l-1.5,0.2
	l-1.3-0.7l-0.3-0.5l-0.1-0.1l-0.2,0.1l-0.3,0.4l-0.2,0.1l-0.2,0l-0.4,0.2l-0.2,0l-0.5,0.6l-0.3-0.3l-0.3-1.1l-0.3-0.2l-1.2-0.3
	l-0.3-0.2l-0.3-0.3l-0.3-0.5l-0.3-0.6l-0.1-0.5l-0.1-0.6l-0.2-0.4l-0.2-0.4l-0.2-0.5l-0.1-1.2l0.4-0.9l0.5-0.9l0.4-1l0.1-0.6l0-0.4
	l-0.2-0.3l-1-0.2l-0.2-0.3l0.1-0.4l0.6-0.9l0.2-0.3l-0.1-0.2l-0.6-0.1l-0.9,0.2l-0.4-0.1l-0.3-0.3l0.6-1.3l0.1-0.7l-0.3-0.8
	l-0.3-0.3l-0.3-0.1l-0.2-0.1l-0.1-0.5l-0.1-0.6v-0.3l-0.1-0.2l-0.3-0.3l-1.2-0.6l-0.2-0.4l0.1-0.6l0-0.2l-0.2-0.1l-0.1,0.1l-0.3,0.5
	l0,0.2l0.1,0.3l0.3,0.3l0.4,0.3l0.9,0.2l0.2,0.4l0,1.7l0.1,0.2l0.5,0.1l0.2,0.2l0.1,0.1l0.1,0.1l0.3,0.2l-0.2,0.5l-0.3,0.5l-0.2,0.2
	l-0.2,1.4l0.6,0.3l0.9-0.1l0.7,0.1l-0.6,0.7l-0.3,0.5l-0.1,0.5l0.2,0.5l0.4,0.1l0.5-0.2l0.4-0.3l0.1,0.6l-0.2,0.9l-0.4,0.8l-0.5,0.3
	l-0.5,0.2l-0.4,0.4l-0.3,0.6v0.8l0.8,1l0.1,0.2l-0.2,1.3l0.1,0.5l0.1,0.2l0,0.2l-0.2,0.4l-0.1,0.2l-0.5,0.3l-0.2,0.1l-0.9,0.2
	l-0.9-0.1l-1.9-0.8l-1.2,0.1l-0.4,0.2l-0.2,0.4l-0.2,0.4l-0.5,0.1l-0.1-0.1l-0.3-0.3l-0.2-0.1l-0.4,0l-0.2,0l-0.2-0.1l-0.1-0.4
	l0.2-0.5l1.1-1.9l0.3-0.6v-0.3l0.3-0.2l0.9-1.4l-0.3-0.4l-0.2,0.2l-0.1,0.4l-0.2,0.4l-0.1,0.1l-0.4,0.2l-0.2,0.1l-0.1,0.2l-0.4,0.6
	l0,0.1l-0.1,0.1l-0.2,0.1l-0.3-0.2l-0.3-0.2l-0.3-0.7l-0.2-0.4l-0.3-0.1l0.2,0.7l0,0.2l0.1,0.4l0.1,0.2l0.2,0.1l0.6,0.5l0.1,0.2
	l-0.2,0.4l-0.4,0.6l0,0.1l-0.3,0.3l-0.7,1.1l-0.3,0.3l-0.4,0.1l-0.9,0.5l-0.3,0.2l-0.3-0.2l-0.6-0.1l-0.3-0.2l-0.2,0.2l-0.4-0.3
	l-1.4-0.4h-0.6l-1,0.3l-1.1,0.2l-0.8,0.3l-0.5,0.1l-0.2,0.1l-0.5,0.4l-0.2,0l-0.2-0.1l-0.3,0.1l-1.2,0.8l-0.3,0.1l-0.8-0.2h-0.2
	l-0.3,0.2l-0.6,0.8l-0.1,0.3l0.1,0.4l0.3,0.7l0.2,0.6h0.1l0.2,0.2l0.1,0.2l-0.1,0.1l-0.1,0.1l-0.1,0.1l-0.1,0.2l-0.2,0.9l-0.1,0.1
	l-0.8,1.1l-0.3,0.3l-1.1-0.1l-0.3,0.4l0.1,0.2l0.5,0.3l0.2,0.2v0.3l-0.1,0.3l-0.6,1.2l-1.4,2l-0.4,0.8l-0.3,0.4l-0.3,0.2l-0.2,0.2
	l-0.4,1.2l-0.2,0.4l-2.5,2.4l-2.2,3l-1.1,1.2l-1.3,1.1l-4.6,4.5l-2,1.5l-1.5,0.7l1-0.6l0.4-0.3l0.2-0.3l0.1-0.3l0.3-0.1l0.3-0.1
	l0.3-0.1l0.3-0.3l0.6-0.6l0.3-0.3l3.2-3l1.3-0.8l0.1-0.4l-0.1-1.6l-0.2-0.1l-0.2,0.2l-0.2,0.3l-0.1,0.3l-0.1,0.8l0,0.2l-0.1,0.2v0.2
	l0,0.1l-0.2,0l-0.1-0.1l-0.1-0.1l-0.1-0.1l-0.1,0.1l-0.2,0.1l-0.9-0.8l-0.5-0.2l-0.5,0.2l-0.2,0.6l-0.1,0.7l-0.1,0.7l-0.2-0.3
	l-0.2-0.3v-0.2l0.1-0.3l-0.1-0.2l-0.2,0.1l-0.2,0.4l0,0.5l0.1,0.4l0.2,0.3l0.2,0.2l-0.1,0.8l-0.1-0.3l-0.2-0.2l-0.4-0.3l0-0.1l0-0.1
	l0-0.1l-0.2-0.1l-0.1,0.1l-0.1,0.1l-0.1,0.1l-0.1,0.1h-0.5l-0.6,0.1l-0.4,0.3l-0.1,0.6l0.2,0.4l0.3,0.2l0.5,0.2l0.3,0.3l0.2,0.2
	l-0.1,0.1l-0.4,0.2l-0.3,0.3l-0.4,0.2l-0.4-0.2l-0.1,0.2l-0.1,0.1v0.1l0.1,0.2l-0.3,0.2l-0.6,0.2l-0.3,0.2l0-0.8l-0.2-0.8l-0.4-0.6
	l-0.5-0.3l0.1-0.2l-0.1-1.4l0.1-0.5l0.1-0.2l0-0.2l-0.2-0.3l-0.1-0.2l-0.1-0.1l-0.1,0l-0.4-0.4l-0.1-0.1l-0.1-0.3l-0.1,0l-0.1,0.2
	l-0.1,0.2l0.1,0.2l0.3,0.4l0.1,0.1l-0.1,0.2l-0.4,0.5l-0.1,0.4l0,0.4l0.1,0.2l0.1,0.2l0.2,0.3l-0.7,0.5l-0.1,1.2l0.1,1.4l-0.2,1.3
	l0.5,0.3l0.3,0.1l0.4,0l0.4-0.1l0.3-0.2l0.5-0.5l-0.3,0.3l-0.7,1l-0.3,0.2l-0.2,0.1l-0.1,0.3l-0.1,0.3l-0.1,0.1l-0.3,0.1v0.3
	l0.3,0.7l0.2,0.2l0.2,0.2l0.2,0l0.1-0.3l0-0.4l0.1-0.3l0.3-0.1v0.7l0.1,0.1l0.1,0l0.1-0.1v-0.1l0.2,0.1l0.2,0l0.1,0.1l0.1,0.5
	l0.1-0.4l0.1-0.5l0.2-0.2l0.3,0.4l0.2,0.5l0,0.6l-0.2,0.4l-0.4,0l0.3,0.3l0.2,0.5l0.1,0.6l0.1,1.2l0,0.3l-0.1,0.3l-0.2,0.4l0,0.2
	l-0.2,0.7l-0.1,0.3l0,0.2l0,0.1l0,0l-0.4,0.4l-0.3,0.2l-0.4,0.1l-0.3-0.1l0.1-0.2l0.1-0.2l0-0.2l-0.1-0.2l0.3-0.8l-0.1-1.1l-0.3-1
	l-0.5-0.4l-0.2-0.1l-0.9-0.8l-2.8-1l-1.5-0.2l-0.2-0.1l-0.2-0.1L258,402l-0.2,0.1l-0.1,0.2l-0.2,0.2l-0.2,0.1l-0.2,0.1h-0.4
	l-0.3-0.1l-0.3,0l-0.4,0.2l-0.3,0.3l-0.2,0.2l-0.1,0.2l-0.1,0.1l-0.5,0l-0.2,0.1l-0.3,0.3l-0.4,0.2l-0.9,0.3l-1,0.9l-0.3,0.2l-0.5,0
	l-0.2,0.1l-0.2,0.1l-0.1,0.3l-0.1,0.6l-0.1,0.2l-0.5,0.2l-0.4-0.2l-0.3-0.4l-0.3-0.2l-0.5-0.1l-0.5-0.4l-0.3-0.1l-0.5,0.1l0,0.4
	l0,0.4l-0.6,0.3l-0.1,0.2l0.1,0.3l0.1,0.2l0.2,0.1l0.6,0.3l-0.2,0.3l-0.3,0.1l-0.6,0l-0.8,0.1l-2.7-0.6l-1.7-0.9l-1.8-0.5l-0.7-0.4
	l-0.3-0.1l-0.5-0.3l-0.4-0.7l-0.6-1.6l0.1-0.6l-0.4-0.5l-0.6-0.3l-0.5,0.1l-0.3-0.3l0.1-0.2l0.2-0.4l0.2-0.3l1.1-0.8l1.4,0.1
	l1.5,0.4l1.3,0.1l0.4-0.2l0.1-0.3l-0.1-1l-0.1-0.1v-0.1l0.1-0.3l0.1-0.1l0.5-0.3l-0.3-0.4l-0.1-0.4l0-0.4l-0.1-0.4l-0.3-0.3
	l-0.3-0.2l-0.2-0.2l0.2-0.3l0.5-0.7l0.2-0.2l0.4-0.2l0.6-0.2l0.1-0.2l-0.2-0.5l0.3-0.5l1.3-0.1l0.5-0.3l0.1-0.3l0-0.3l-0.1-0.3v-0.2
	l0.2-0.1l0.6-0.1l0.4-0.2l0.3-0.3l0.1-0.4l0-0.6l-0.1-0.5l-0.3-1v-0.5l0.2-0.4l0.4-0.2l3.5-0.9l0.5-0.2l0.1-0.6l-0.4-1.3l-0.1-0.7
	l0.2-0.5l0.7-0.8l0.5-0.8l0.2-0.7l-0.1-0.6l-1.2-1.1l-0.4-0.5v-0.4l0.2-0.4l0.1-0.5l0-0.5l-0.4-1.4l-0.2-1.1l0.1-0.8l0.4-0.6l1.5-1
	l1.1-0.4l1.8-1h0.4l0.3,0.4l0.1,0.6l0,2.5l-0.1,0.4l-0.1,0.3l-0.2,0.3l-0.1,0.3v0.3l0.4,0.3l0.5-0.3l0.7-0.8l0.3-0.1l0.2,0.1
	l0.1-0.1l0.2-0.4v-0.3l-0.1-0.6l0.1-0.4l0.4-0.6l0.3,0.1l0.5,1l0.4,0.5h0.3l0.9-1.4l0.4-0.4l0.4-0.2l0.5,0.1l0.1,0.2l0,0.2l-0.1,0.2
	l-0.1,0.2l-0.1,0.2l0,0.2l0,0.2l0.1,0.2l0.3,0.1l0.6,0.1l0.3,0.1l0.3,0.3l0.3,0.6l0.3,0.4l0.3,0.2l0.4,0l0.3-0.1l0.3-0.3l0.2-0.5
	l-0.1-0.7l0.1-0.2h0.6l0.4-0.2l0.2-0.4V372l0.3,0.5l1.1,1l0.4,0.7l0.1,0.3l0,0.3v0.6l0.1,0.2l0.4,0.5l0.4-0.1l0.8-0.7l0.4-0.2
	l0.3-0.1l2.4,0.2l0.9-0.2l0.5-0.5l0.5-0.9l-0.3-0.2l-0.3-0.1l-0.3,0.1l-0.2,0.2l-0.3-0.4l-0.9-0.7l0.2-0.3l-0.3-0.5l-0.1-0.2
	l-0.2-0.1h-0.1l-0.3,0.2l-0.1,0.1l-0.1-0.1l-0.1-0.3l0-0.1l-0.9-0.4l-0.3-0.4l-0.1-0.7l0.4,0l0.5-0.1l0.2-0.6l-0.1-0.3l-0.3-0.6
	l-0.1-0.3v-0.4l0.1-0.3l0.1-0.3l0.1-0.3l0.2-1.8l0-0.5l-0.1-0.2l-0.2-0.4l-0.1-0.2l0-0.3v-0.6l-0.1-0.2l-0.2-0.1l-0.2,0.1l-0.2,0.1
	l-0.2,0l-0.1-0.2l-0.2-0.5l-0.1-0.2l-0.6-0.5l-0.6-0.1l-0.6,0.1l-0.6-0.1l-0.4-0.3l-0.5-0.8l-0.3-0.3l-0.3-0.1l-0.7-0.1l-0.3-0.1
	l-0.2-0.2l-0.3-0.4l-0.2-0.1l-0.5,0.1l-0.1,0l-0.2-0.3l0-0.4l0.1-0.5l0.1-1.1l0.2-0.3l0.3-0.3l0.2-0.4l0-0.5l-0.2-0.4l-0.2-0.3
	l-0.3-0.2l-0.4,0l-0.2,0.3l-0.2,0.4l-0.2,0.2l-0.2-0.2l-0.6-1.2l-0.1-0.1V353l0.1-0.1l0.6,0l0.4-0.1l0.3-0.4l0.1-0.7l-0.2-1.6
	l0.1-0.6l0.5-0.3l0.2-0.5l0-0.7l-0.2-0.7l-0.3-0.5l-0.3-0.3l-0.4-0.2l-0.4,0l-0.4,0.1l-0.2,0.5l-0.1,0.5l-0.3,0.4l-0.4,0.3l-0.3,0.1
	l-0.3,0l-0.3-0.2l-0.3-0.3l-0.3-0.5l-0.1-0.4v-0.4l-0.1-0.5l-0.3-0.4l-0.3-0.1l-0.3-0.1l-0.3-0.2l-0.2-0.3l-0.1-0.4l-0.2-0.3
	l-0.6-0.4l-0.4-0.6l-0.3-0.2l-0.3,0.2l-0.2,0.3l-0.2,0.2l-0.4-0.3l-0.2-0.3l-0.3-0.9l-0.2-0.4l-0.3-1.2l0.3-0.8l0.5-0.7l0.5-0.9
	l0.2-1.1l0-1.1l0.1-0.9l0.6-0.8l0.2-0.4l-0.1-0.3l-0.3-0.2l-0.7-0.3l-0.2-0.2v-0.3l0.2-0.5l0.3-0.3l0.4-0.4l0.3-0.4l0.1-0.4
	l-0.2-0.2l-0.8-0.3l-0.3-0.2l-0.2-0.4l-0.2-1l-0.2-0.5l-0.2-0.4l-0.3-0.2l-0.3-0.1h-0.4l-0.6,0.3l-0.9,1.2l-0.7,0.2l-0.6-0.3
	l-0.7-0.6l-0.7-0.7l-0.5-0.9l-0.3-0.3l-0.1-0.2l0-0.2l-0.2-0.8l-0.3-0.8l-0.1-0.2l0-0.2l-0.1-0.2l-0.1-0.2l-0.6-0.4l-0.7-0.1l-1.4,0
	l-1.8-0.8l-0.7,0l-0.5,0.2l-0.4,1.1l-0.2,0.6v0.5l-0.1,0.3l-0.2,0l-0.4-0.3l-0.3-0.3l-0.6-1.2l0.3-0.4l0-0.5l-0.2-0.4l-0.3-0.2
	l-0.5,0.1l-0.3,0.4l-0.2,0.5l-0.3,0.4l-0.4,0.1l-0.2-0.3l-0.1-0.4l0.1-0.4l0.3-0.4l0.3-0.2l0.2-0.3l0.2-0.6l-0.1-0.6l-0.2-0.3
	l-0.4-0.1l-0.9,0.1l-0.3,0.2l-0.3,0.3l-0.4,0.3l-0.5,0.1l-0.3-0.1l-0.2-0.4l-0.1-0.6l-0.2-0.5l-0.3,0.1L234,319l-0.3,0.1l-0.5,0
	l-0.3-0.2l0.4-1.2l-0.1-0.5l-0.3-0.4l-0.4-0.2l-1.8-0.2l-0.8-0.3l-0.5-0.7l-0.2-0.2l-0.6-1l-0.3-0.3l-1.3-1l-0.7-0.3l-2.5,0
	l-0.4-0.2l-0.1-0.8l-0.4-0.1l-0.5,0.4l-0.2,0.1h-0.8l-0.5,0.6l-1.2,1l-0.3,0.2l-0.3-0.1l-0.6-0.5l-0.4-0.1l-0.7,0.4l-1.2,1.5
	l-0.8,0.4l-0.7,0l-2.1-0.8l-0.4-0.3l-0.2-0.1l-0.2,0.1l0,0.2l0.1,0.3v0.2l0,0.1l0.1,0.2l0,0.2l-0.1,0.1l-0.3-0.1l-0.2,0l-0.1-0.1
	l-0.2,0l-0.2,0.2l-0.8,0.1l-0.7-0.4l-0.7-0.6l-0.7-0.3l-0.2,0.1l-0.1,0.2l-0.1,0.2l-0.2,0.2h-0.2l-0.3-0.1H207l-0.2,0.3l0,0.3
	l0.1,0.4l0.1,0.6v0.6l-0.1,0.4l-0.2,0.2l-0.4,0l-0.4-0.2l-0.3-0.3l-0.2-0.4l-0.3-0.3l-0.4-0.2l-0.1,0.3l-0.1,0.4l-0.7,0.4l-0.2,0.4
	l-0.1,0.4l0,0.3l-0.6,0.3l-2.5,0.6l-0.3,0.1l-1,0.1l-0.3,0.1l-0.7,0.3l-0.4,0.1l-0.4,0l-0.2-0.1l-0.2,1l0,0.7l-0.2,1l-0.3,0.9
	l-0.3,0.6l-0.3,0.3l-0.5,0.5l-0.3,0.3l-0.5,1l-0.2,0.3l-1,0.4l-1.9,0l-1.3,0.4l-1-0.1l-0.3,0.1l-0.6,0.3l-1.1,0.1l-1.3,0.5l-9.9,1.1
	l-0.9,0.6l-1.9,3.3l-0.8,0.8l-1.3,0.6l-2.4,0.4l-0.4-0.3l-0.5-0.7l-0.7-1.2l-0.3-0.4l-0.3-0.3l-1.6-0.6l-0.7-0.4l-0.4-0.4l-0.1-0.4
	l0-0.4l-0.1-0.5l-0.3-0.4l-0.5-0.4l-0.9-0.6l-0.4-0.1l-1.1,0l-1.1-0.3h-0.4l-0.5,0.3l-0.8,0.7l-1,0l-1.4,0.7l-0.4,0L154,329l0,0
	l-0.4-0.1l-0.7-0.7l-0.4-0.2l-1-0.3l-0.3-0.3l-0.6,0l-2,0.8H148l-0.1-0.5l-1-1l-0.3-0.2l-1.4,0.1l-0.5-0.1l-0.8-0.3l-1.3-0.2
	l-0.4-0.1l-0.8,0.2l-0.2,0.1l-0.2,0.2l-0.1,0.2l-0.1,0.2l-0.1,0.2l-0.2,0.1l-0.4,0l-1.3-0.7h-0.1l-0.2,0.1h-0.2l-0.2,0l-0.2-0.1
	l-0.5-0.5l-1-0.8l-0.8-1l-0.4-0.3l-1.4-0.5l-0.5-0.1l-0.4,0.2l-0.4,0.6l-0.5,1.4l-0.3,0.5l-0.9,0.7l-0.3,0.1l-0.3-0.1l-0.3-0.2
	l-0.3-0.2l-0.4-0.2l-0.3,0l-0.2,0.4l0.2,0.6l-0.2,0.4l-0.4,0.3l-0.4,0.1l-0.7-0.6l-0.2-0.4l0.4-0.4l0-0.5l0.1-0.3l0.1-0.3l-0.2-0.6
	l-0.2-0.4l-0.3-0.3l-0.6-0.6l-0.7-0.4l-0.1-0.2l-0.3-0.2l-0.4,0.1l-0.3,0.2l-0.4,0.1h-1.4l-0.3,0.2h-0.1l-0.1-0.1l-0.4-0.7l-0.3-1
	l-0.3-0.6l-1.5-2l-0.1,0l-0.1,0h-0.1l-0.4,0.2l-0.3,0l-0.3-0.1l-0.4-0.2h-0.2l-0.1,0l-0.2,0.1l-0.2,0.1l-0.2,0l-0.1-0.1l-1-1.5
	l-0.2-0.6l0-0.4l0.1-0.4v-0.3l-0.2-0.3l-0.2,0l-0.6,0V315l0.3-0.9l-0.7-0.4l-0.7-0.1l-0.7,0.3l-0.2,0.2h-0.1l-0.5-0.1l0-2.2l0.2-0.5
	l0.1-0.5l-0.2-1.2l0.1-0.6l0.3-0.5l1.3-1.1l0.1-0.2l0.2-0.5l0.2-0.2l0.3-0.2l0.5-0.2l0.3-0.2l0.3-0.4l0.3-0.6l0.1-0.6l0-0.7l0.1-0.4
	l0.2-0.2l0.2-0.2l0.2-0.3l0.2-0.4l0.1-0.2l-0.1-1l0-0.3v-0.2l0.1-0.4l0.2-0.3l0.5-0.4l0.2-0.3l0.1-0.2v-0.4l0-0.2l0.3-0.5l0.4-1.3
	l0.4-0.3l0.8-0.1l0.3-0.3v-0.5l0.1-0.7l0.2-0.7l0.2-0.5l0.4-0.4l0.4,0.1l0.8,0.8l0.5,0.3l0.4,0.1l0.4-0.1l0.7,0.1l0.5-0.2l0.2,0
	l0.2,0.2l0.4,0.5l0.2,0.1l0.4,0.2l0.5,0.4l0.4,0.2l0.2-0.5l-0.1-0.2l-0.3-0.6l-0.1-0.3l0-0.4l0.2-0.6v-0.3l-0.3-0.3l-0.9-0.5
	l-0.4-0.3l-0.6-0.8l-0.7-0.5l0.1,0h0l-0.3-0.2l-0.3,0.3l-0.1,0.1l-0.1-0.2l0.1-0.4l0.3-0.7l0.3-1.1l0.3-0.9l0.1-0.5l-0.3-2.9
	l-0.1-0.5l-0.1-0.2l-0.4-0.5l-0.3-0.4l-0.1-0.2l-0.1-0.4l-0.1-1.3l-0.1-0.5l-0.4-1.1l0.5-1.2l1.5-2.1l0.4-1l0.2-0.3l0.2-0.2l0.4-0.1
	l0.2-0.1l0.3-0.4l1.2-2.3l0.2-0.2l0.2-0.1l0.4-0.1l0.2-0.2l0.1-0.2l0.2-0.6l0.1-0.3l0.8-0.9l2.2-3.2l0.8-0.9l0.7-0.6l0.6-0.9l4.6-5
	l0.9-0.7l1.1-0.8l0.6-0.5l1.6-1.7l0.3-0.4l0.3-0.9l0.2-0.5l0.3-0.3l0.4-0.2l0.7-0.2l3.6-0.1l1.1-0.5l0.5-1l0.1-0.3l0-0.4l0-0.6
	l0.1-0.4l1.3-0.7l0.4-0.4l0.3-0.4l0-0.1l-0.1-0.1l-0.1-0.4l-0.2-1.5l0.5-0.8l-0.5-1.3l-0.2-0.7l0.1-0.7l-0.5-0.1l-0.6-0.3l-0.3-0.5
	l0.3-0.6v-0.2L151,240l-0.5-0.2l-0.3-0.4l0-0.6l0.3-0.6l0.5-0.4l0.6-0.1l0.5,0.3l0.4-0.2h0.7l0.6-0.1l0.3-0.6l-0.3-0.4l-1.7-0.9
	l-1.4-1.3l-0.3-0.5l-0.1-0.4l0-0.3l-0.1-0.3l-0.2-0.3l-0.3-0.2l-0.3-0.1l-0.2-0.1l0.1-0.3v-0.2l-0.2-1.4l-0.2-0.4l-0.5-0.8l-0.3-0.6
	l0.1-0.3l0.3-0.2l-0.2-0.4l-1-1l-1-0.7l-0.5-0.6l-1.1-2.5l-0.3-0.2h-0.4l-0.3-0.2l-0.1-0.7l0.1-0.4l0.3-0.5l0.4-0.4l0.4-0.2
	l-0.1-0.4l0-0.3l0.2-0.2l0.2-0.1l-0.2-0.4l-0.8-1.2l0-0.2l0.3-0.7l-0.3-0.2l-0.4-0.1l-0.5-0.2l-0.1-0.5l0-0.2l0.2,0.2l0.2-0.1
	l0.1-0.5l-0.1-0.3l-0.6-1.6l-0.1-0.3l0-0.3l0.3-0.4l0.2-0.2l0.3-0.1l2-0.5h0.5l1.4,0.4l0.5,0.1l0.8,0.3l0.6,0.7l0.6,0.5l0.8-0.1
	l3-2.7l2.3-1.6l0.6-0.8l0.5-2.1l0.3-0.6l0.7-1.1l0.4-0.5l0.4-0.2l5-0.4l1.2,0.3l0.4,0l5.6-0.9l1.8-1l0.9-0.3l0.9,0l3.4,0.9l6.7,0.1
	l1.7-0.3l4.3,0.8l1.4-0.1l0.6,0.1l1.3,1.2l0.6,0.3l4.7,0.2l0.2,0.1v0.2l-0.1,0.3l0.1,0.3l0.3,0.4l0.3,0.2l4.4,0.2l3.8,1.7l1.3,0.2
	l2-0.7l1.8,0.1l0.8,0.2l0.5,0.3l0.1,0.5l-0.1,0.7v0.9l0.2,0.6l0.3,0.3l0.4,0.1l0.5-0.1l0.6,0.2l-0.1,0.6l-0.3,0.7l-0.1,0.6l0.3,0.3
	l0.4-0.1l0.8-0.3l1.2,0.2l0.4,0l0.4-0.2l0.6-0.6l0.4-0.2l0.7,0l2.2,0.9l1.1,0l0.3,0.2l0.3,0.7l-0.2,0.8l-0.7,1.6l0.1,0.3l0.3,0.3
	l0.3,0.3l0.3,0.1l0.3-0.1l0.2-0.2l0.9-1.3l0.1-0.2l0.1-0.4l0-0.4l0-0.4v-0.4l0.1-0.7l0.3-0.5l0.4-0.4l0.5-0.1l0.4,0.2l1.2,1.3
	l0.4,0.2l0.4,0.1h2l0.4-0.2l0.5-0.4l0.7-1.3l0.4-0.6l0.4-0.4l0.5-0.2l0.4,0l0.3,0.3l0.1,0.3v0.3l0,0.3l0.2,0.4l0.3,0.3l0.6,0.4
	l0.3,0.3l0.1,0.3l0.2,0.9l0.1,0.3l0.3,0.1l0.3-0.2l0.5-0.5l1-0.7l0.5-0.2h0.6l1.8,0.4l0.5,0.2l0.2,0.4l0.1,0.7l0.3,1.8l0.1,0.5
	l0.2,0.3l0.3,0.2l0.3-0.1l0.3-0.2l0.3,0l0.2,0.4l0.2,0.6l0.2,0.3l0.4-0.4l0.1-0.5l-0.1-1.2l0.1-0.5l0.4-0.9l0.6-0.7l0.6-0.5l0.6-0.4
	l0.6-0.1h1.2l0.5-0.2l0.4-0.4l0.5-1l0.4-0.4l0.4-0.2l0.4,0l0.8,0.2l0.5,0.3l0.3,0.4l0.4,1.2l0.7,1l0.2,0.5l0.1,0.8l-0.2,0.8l0.1,0.4
	l0.3,0.3l0.4,0.5l0.2,0.6l0.2,0.7l0.3,0.6l0.5,0.3l0.4-0.2l0.8-0.7l0.5-0.2l0.9,0.4h0.4l0.3-0.5l0.3-0.8l0.2-0.4l0.3-0.2l0.5-0.1
	l0.5-0.2l0.3-0.4l0.2-0.4l0.4-0.4l0.4-0.2l0.5-0.1l0.4,0.1l0.4,0.3l0.3,0.6l0.2,0.5l0.3,0.4l1.8,0.3l0.4-0.1l0.2-0.2l0.3-0.6
	l0.3-0.2l0.2,0l0.3,0.2h0.3l1.2-0.6l0.5-0.2l2.8-0.1l0.6,0.2l0.6,0.4l0.8,1l0.3,0.3l1,0.5l0.3,0.3l0.2,0.2l0.1,0.2l0,0.3v0.3l0,0.3
	l-0.2,0.7l-0.1,0l0.2,0.3l0.6,0.8l0.3,0.3l0.3,0.1h0.6l0.3,0.1l0.3,0.3l0.5,0.7l0.3,0.1l0.3,0l0.3,0.1l0.3,0.2l0.2,0.3l0.2,0.3
	l0.2-0.1l0.1-0.2l0-0.8l0.1-0.1l0.4-0.6l0.1-0.5l0.6-0.5l0.6-0.6l-0.1-0.9l0.3-0.1l0-0.2l-0.2-0.2l-0.1-0.2l-0.2-0.9L284,219
	l-0.3-0.2h-0.2l-0.2-0.1l-0.1-0.4l0.1-0.4l0.2-0.2l0.2-0.1l0.3,0.1v-0.2l-0.2-0.1l-0.2-0.1l-0.2-0.3l-0.1-0.4l0.1-0.3l-0.1-0.3
	l-0.2-0.2l-0.3-0.2l0.2-0.2l0.1-0.2l0.2-0.4l-0.3-0.2l-0.7-0.2l-0.2-0.3v-0.2l0.1-0.1l0.1-0.1l0.1-0.1l0.2-0.1v-0.2l-0.2-0.1
	l-0.4-0.3V213l0.6-0.5l0.3-0.1l-0.1-0.3l-0.1-0.1l0.1-0.1l0.2-0.3l0.2-0.1L283,211l0.2-0.7l-0.1-0.4l0.3-0.1l0.6,0l0.2-0.1l0.1-0.3
	l0-0.4l0.1-0.4l0.2-0.3V208l-0.2,0l-0.4-0.2l0.3-0.3l0.5-0.3l0.4-0.4l0-0.5L285,206v-0.1l0.1-0.1l0.1-0.2l0.4-0.6l0-0.1l0.1-0.1
	l0.1-0.2l0.1-0.2l0.4-0.2l0.1-0.3v-0.3l0.1-0.2l0.2-0.1l0.6,0.1l0.2-0.1l0.2-0.2l0.3-0.4v-0.2l-0.1-0.1l-0.1-0.2V202l0.6-0.2
	l0.3-0.2l0.3-0.2l0.2-0.3l0.2-0.3v-0.3l0-0.2l0.2-0.2l0.2-0.1l0.1-0.1l0.1,0.1l0.1,0.2l0.5,0l0.2-0.4l-0.2-0.5l-0.6-0.1l0.1-0.2
	l0.1-0.2l0.1-0.2l0.1-0.2l-0.1-0.6l0.3-0.4l0.5-0.2l2.8-0.2l0.8,0.1l0.5,0.3l0.9,0.8l0.5,0.2l0.5-0.2l0.3-0.6l0.3-0.7l0.4-0.5
	l1.6-0.7h1.8l3.5,0.7l2.3-0.1l1.2-0.1l0.7,0.1l0.5,0.5l0.1,0.5v0.6l0.1,0.5l0.4,0.2l0.3-0.1l1.1-0.5l0.7-0.1l1.2,0.3l0.4,0l2.8-1.3
	l0.9-0.7l0.6-1.3l0.3-2l0.2-0.6l0.2-0.2l0.3-0.2l0.2-0.2l0.1-0.4l-0.1-0.3l-0.4-0.7l-0.1-0.4l0.3-1.1l0.8-0.2l1.7,0.7l1-0.3l4,2.1
	h0.6l1.2-0.3h0.6l0.3,0.2l0.6,0.5l0.4,0.1l0.4-0.2l2.1-1.9l0.4-0.2l0.2,0l0.3,0.2l0.2-0.1l0.2-0.2l0.2-0.5l0.2-0.1l0.4-0.2l0.3-0.3
	l0.5-0.7l0.3-0.2l0.3-0.1l2,0.4h1.3l0.4,0.1l0.6,0.4l0.3,0.2l0.4,0l0.3-0.2l0.3-0.3l0.3-0.2l0.4,0.6l-0.1,1.3l0.4,0.5l0.4-0.1
	l1.4-1.4l1.8-0.8l0.9-0.2l0.9,0l0.5,0.2l0.2,0.3l0.1,0.5l0.3,0.6l0.4,0.4l0.8,0.5l0.4,0.5l0.5,1.1l0.3,0.4l1.3,0.9l0.3,0.4l0.3,0.5
	l0.2,0.4l0.1,0.3l0.1,0.3v0.4l-0.4,0.7v0.2l0.1,0.6l0.1,1.1l0.1,0.6l0.3,0.6l0.4,0.7l0.1,0.6l-0.2,0.5v0.3h1l0.4,0.3l0.8,1l0.1,0.1
	l0.3,0.2l0.1,0.1l0,0.2l0.1,0.5v0.1l0.2,0.1l0.4-0.2h0.2l0.4,0.3l0.7,0.8l0.4,0.3l0.8,0.8l0.6,1.3l0,1.4l-0.8,0.9l-0.4,0.1l-1.2,0
	l-3.4,0.8l-0.8,0.5l-0.2,0.8l0.2,0.3l0.7,0.2l0.3,0.2l0.1,0.2l0.1,0.7l0.1,0.3l0.1,0.3l0.8,1l0.3,0.5l0.2,0.6l0,0.7l0,0.3l-0.2,0.6
	l-0.1,0.3l0,0.3l0.1,0.3l0.1,0.3l-0.1,0.3l-0.1,0.3l-0.5,0.1l-0.1,0.2l0.1,0.3l0.2,0.3l0.4,0.4l0.3,0.2l0.3,0.2l0.4,0.1h0.3l0.4-0.2
	l0.2,1.1l-0.5,1.1l-0.8,0.9l-1.2,0.8l1.4,0.6l0.5,0.1l0.4-0.2l0.8-0.6l0.7-0.2l0.8,0.1l1.4,0.5l0.7,0.3l1.3-0.2l0.6,0.1l0.3,0.3
	l0.1,0.4l0.1,0.5l0.2,0.5l0.3,0.3l0.4,0.1l1.5,0.1l1.4-0.3l1.6-0.7l0.9-0.6l0.3,0l0.4,0.2l0.4,0.3l0.4-0.1l0.4-0.2l0.4-0.1l0.4,0.2
	l0.3,0.3l0.2,0.5l0.5,3l0.4,1.1l0.6,0.6l0.7,0.1l1.4-0.3l0.7,0.1l0.4,0.1l0.4,0.2l0.2,0.4l-0.2,0.6l-0.3,0.3l-1.1,0.2l0.1,0.4v0.9
	l0.1,0.3l0.2,0.2l0.5,0.1l0.3,0.2l0.3,0.4l0,0.4l-0.1,0.4l0,0.5l0.2,0.4l0.4,0.6l0.2,0.4l0.1,0.5l-0.1,0.4l0,0.3l0.3,0.3l0.5,0.3
	l0.2,0.2l0.2,0.3l0.2,0.9l-0.1,0.8l0,0.7l0.5,0.6l-1.6,0.7l-0.3,0.4l0,0.4l1,3.9l0.4-3.1l0.7,0.3l0.4,0.1l0.4,0.2l0.4,0.3l0.3,0.5
	l0.2,0.7l0,0.6l0.1,0.5l0.4,0.5l0.4,0.3l0.4,0.2l0.4,0.1l0.4,0l0.5-0.2l0.3-0.3l0.2-0.4l0.3-0.4l0.2-0.1h0.4l0.2-0.1l0.2-0.2
	l0.4-0.6l0.3-0.2l0.4-0.1l1.9-0.2l3.5-2.6l0.6,0.3l0.2,0.6l0.6,0.3l2,3.2l0.5,0.2l0.5,0l0.5-0.2l0.5-0.3l0.4-0.4l0.2-0.1h0.3
	l0.2,0.1l0.4,0.3l0.5,0.1l0.6,0.4l0.6,0.2l0.2,0.1l0.3,0.2l0.1,0.1l-0.1,0.1l0,0.7l-0.1,0.3l0.1,0.3l0.3,0.3l0.4,0.2l0.5,0.1
	l0.5-0.1l0.4-0.3l0.2-0.3l0.3-0.7l0.2-0.3l0.3-0.3l3.3-2l1.3-0.5l1.3-0.1l1.4,0.2l2.9,5.9l0.6-0.5l1.2-1.2l0.6-0.3l2-0.3l0.4,0.2
	l0.3,0.8l0.3,1l0.3,0.8l1.8,0.9l0.6,0.7l0.1,1.3l-0.2,0.8l-0.1,0.3l0,0.3l0.2,0.2l0.7,0.7l1.9,3l0.7,0.5l1.6,0.7l0.8,0.5l0.7,0.6
	l0.6,0.8l0.7,1.2l0,0.1l0.3-6.2v0.5l0.1,0.2l1.3-0.9l0.3-0.1l0.2,0.1l0.4,0.3l0.2,0.1l1-0.7l0.1-1.4l-0.2-1.5l0.2-0.9l0.3-0.1
	l1.3,0.1l0.6-0.1l0.4,0.1l0.3,0.4l0.6,1.8l0.2,0.4l0.4,0.2l0.9,0.1l0.4,0.2l0.5,0.3l0.7,0.3l1.5-0.3l1,0.2l0.2-0.1l0.2-0.1l0.5-0.2
	l0.1-0.1v0.1l0.2,0.6l0.1,0.5l0.1,0.3l0.1,0.1l1.2,0.9l2.1,0.6l0.7,0.6l0.5,0.8l0.5,0.5l1.9-0.1l0.3-0.1l0.4-0.3l0.6-1l0.4-0.4
	l0.8-0.3l0.5,0.5l1.1,2.9l0.5,0.6l0.6,0.4l0.8,0.2l0.8-0.2l0.8-0.4l0.8-0.2l0.7,0.5l0.4,0.2l1.2,0.1l0.3,0.3l0.2,0.7l0.3,1.4
	l0.5,1.1l0.6,0.4l0.7,0.2l0.8,0.4l1,1l0.4,0.2l0.6,0l0.6-0.1l0.6-0.2l0.5-0.3l1.2-1.2l0.5-0.2h0.4l2,0.5l0.3,0.3l-0.1,0.6l-0.3,0.4
	l-0.8,0.5l-0.4,0.3l-0.4,1l0.1,1l0.4,0.9l0.8,1.3l0.9,1.1l0.2,0.5L475.8,279z M324.3,384.1l0.2-0.2h0.1l0.2,0.2l2.9,0.4l1.4-0.3
	l0.6,0l0.6,0.5l0.8-0.4l0.5-0.1l0.2,0.3l0.2,0.2l0.9-0.1l0.3,0.4l-0.4,0.4L324.3,384.1z"/>
<g>
	<path class="st0" d="M234.9,547L234.9,547c-5.5-1.4-9.6-4.1-12.2-8.3c-2.6-4.2-3.3-9-1.9-14.4c1.3-5.3,4.1-9.2,8.3-11.6
		c4.2-2.4,9.1-2.9,14.5-1.6l0.1,0l1.4-5.6l8.7,2.2l-1.4,5.6l0.2,0c5.5,1.4,9.5,4.1,12.1,8.1c2.6,4.1,3.3,8.8,2,14.1
		c-1.3,5.4-4.1,9.4-8.4,11.9c-4.3,2.5-9.1,3.1-14.6,1.7l-0.2,0l-1.4,5.7l-8.7-2.2L234.9,547z M236.6,539.9l5.3-21.5l-0.1,0
		c-3-0.8-5.7-0.4-7.9,1c-2.2,1.4-3.7,3.8-4.6,7.2c-0.9,3.5-0.7,6.4,0.6,8.7c1.3,2.3,3.4,3.9,6.5,4.6L236.6,539.9z M245.6,542.1
		c3.1,0.8,5.7,0.4,8-1.1c2.2-1.5,3.8-4,4.6-7.4c0.8-3.4,0.6-6.2-0.7-8.5s-3.5-3.8-6.6-4.5l-0.2,0l-5.3,21.5L245.6,542.1z"/>
	<path class="st0" d="M188.5,506.4l16.8,7.9l5.4-11.6l-19.7-9.2l2.9-6.3l27.8,13.1l-19.1,40.6l-27.8-13l2.9-6.3l19.6,9.2l4.8-10.2
		l-16.8-7.9L188.5,506.4z"/>
	<path class="st0" d="M163.2,452.1l6.6,4.8l-6.5,8.9l22.3,16.1l6.5-8.9l6.7,4.9l-10,15l-2.8-2c-2.1,0.2-4.5,1.1-7.2,2.8
		s-5.8,4.8-9.4,9.4l-11.8,14.2L134.1,500l22.3-30.8l-4.3-3.1L163.2,452.1z M162.2,497.7c2.8-3.6,5.5-6.4,8.1-8.4s5.1-3.5,7.5-4.4
		l-14.2-10.3l-18.2,25.1l9.5,6.8L162.2,497.7z"/>
	<path class="st0" d="M120.5,450.9l12.8,13.5l9.3-8.8l-14.9-15.8l5-4.8l21.1,22.4l-32.7,30.8l-21-22.3l5-4.8l14.9,15.8l8.2-7.7
		l-12.8-13.5L120.5,450.9z"/>
	<path class="st0" d="M111.5,433l13.6-8.9l4.9,7.5l-37.6,24.6l-9.8-15c-2.8-4.3-4-8.4-3.4-12.4c0.6-3.9,2.7-7.1,6.3-9.4
		c3.6-2.4,7.3-3,11.1-2c3.8,1,7.1,3.7,10,8L111.5,433z M105.7,436.8l-4.9-7.4c-1.4-2.1-3-3.3-4.8-3.6c-1.9-0.3-3.7,0.1-5.4,1.2
		c-1.8,1.2-2.9,2.7-3.4,4.5c-0.5,1.8,0,3.8,1.4,5.9l4.9,7.4L105.7,436.8z"/>
	<path class="st0" d="M92.4,384.2l6.4,14.4l10.1-1.2l3.7,8.3L65.3,410l-3.8-8.4l34.7-32.3l3.7,8.3L92.4,384.2z M91.4,399.5
		l-4.6-10.3L73,401.4l0.1,0.2L91.4,399.5z"/>
	<path class="st0" d="M51.5,376l-2-8.8l37-8.4l-4-17.9l-37,8.4l-2-8.8l37-8.4l-1.2-5.3l17.6-4l2,8.8l-10.8,2.4l7.2,32L51.5,376z"/>
	<path class="st0" d="M86,310.5l0.6,9l-44.8,3.1l-0.6-9L86,310.5z"/>
	<path class="st0" d="M85.6,297.3L85,307l-18.6-10.8c-1.4,2.3-3.1,4-5.1,5c-2,1.1-4.4,1.5-7.1,1.4c-4.4-0.3-7.7-1.9-9.9-5
		c-2.2-3.1-3.2-7.2-2.9-12.3l0.9-15.5l44.8,2.6l-0.5,9l-16.4-1l-0.5,7.7L85.6,297.3z M48.6,279.1l-0.4,6.5c-0.1,2.5,0.4,4.4,1.5,5.7
		c1.2,1.3,2.9,2.1,5.2,2.2c2.3,0.1,4.2-0.4,5.7-1.6c1.5-1.2,2.3-3,2.4-5.4l0.4-6.5L48.6,279.1z"/>
	<path class="st0" d="M83.4,220.9l15.1,6.1l-3.4,8.4l-41.7-16.7l6.7-16.6c1.9-4.8,4.7-8.1,8.2-9.8c3.5-1.8,7.3-1.9,11.3-0.3
		c4,1.6,6.6,4.3,8,8c1.3,3.7,1,8-0.9,12.8L83.4,220.9z M76.9,218.3l3.3-8.2c0.9-2.3,1-4.3,0.2-6.1c-0.8-1.7-2.2-3-4.1-3.8
		c-2-0.8-3.9-0.9-5.7-0.2s-3.1,2.2-4.1,4.5l-3.3,8.2L76.9,218.3z"/>
	<path class="st0" d="M114.5,158.2c4.6,3,7.5,6.9,8.7,11.8c1.1,4.9,0.2,9.7-2.8,14.3c-3,4.7-6.9,7.5-11.8,8.4c-4.9,1-9.7,0-14.3-3
		l-6.8-4.4c-4.6-3-7.5-6.9-8.7-11.7c-1.2-4.8-0.3-9.6,2.7-14.3c3-4.7,7-7.5,11.9-8.5c4.9-1,9.7,0,14.3,3L114.5,158.2z M102.8,161.4
		c-2.9-1.9-5.8-2.7-8.7-2.4c-2.8,0.3-5.1,1.7-6.7,4.3c-1.7,2.6-2,5.2-1,7.8c1,2.6,2.9,4.9,5.9,6.8l6.9,4.4c3,1.9,5.9,2.8,8.7,2.6
		c2.8-0.2,5-1.6,6.7-4.2c1.7-2.6,2-5.2,1.1-7.9c-1-2.7-2.9-5-5.9-6.9L102.8,161.4z"/>
	<path class="st0" d="M125.9,116.9l-13.6,14.4l6.4,6.1l5.3-5.6c3.5-3.8,7.3-5.8,11.4-6.2c4-0.4,7.6,0.9,10.7,3.9
		c3.1,3,4.6,6.5,4.5,10.6c-0.1,4.1-1.9,8-5.5,11.7l-11.7,12.4l-32.7-30.8l20.1-21.3L125.9,116.9z M123.7,142.2l11.1,10.5l5.3-5.6
		c1.7-1.8,2.5-3.8,2.4-5.8c-0.2-2-1-3.8-2.6-5.3c-1.5-1.4-3.3-2.2-5.3-2.2s-3.9,0.9-5.6,2.8L123.7,142.2z"/>
	<path class="st0" d="M178.8,100.3c3.2,4.5,4.5,9.2,3.8,14.1c-0.7,5-3.3,9.1-7.8,12.3c-4.5,3.2-9.2,4.4-14.1,3.5
		c-4.9-0.9-9-3.6-12.2-8l-4.7-6.5c-3.2-4.4-4.5-9.1-3.8-14.1s3.2-9,7.7-12.3c4.5-3.3,9.2-4.5,14.2-3.6c4.9,0.9,9,3.5,12.3,8
		L178.8,100.3z M166.8,99c-2.1-2.8-4.4-4.7-7.2-5.4c-2.7-0.8-5.3-0.3-7.8,1.5c-2.5,1.8-3.7,4.1-3.8,6.9c-0.1,2.8,1,5.6,3,8.5
		l4.8,6.6c2.1,2.9,4.5,4.7,7.2,5.6c2.7,0.8,5.3,0.3,7.7-1.5c2.5-1.8,3.8-4.1,3.9-7c0.1-2.8-0.9-5.7-3-8.6L166.8,99z"/>
	<path class="st0" d="M205.4,65.3l-11.4,5.5l16.6,34.1l-8.1,3.9l-16.6-34.1l-11.4,5.5l-3-6.2l30.9-15L205.4,65.3z"/>
	<path class="st0" d="M254.2,70.8c1.5,5.3,1.1,10.2-1.2,14.6c-2.4,4.4-6.2,7.4-11.6,8.9c-5.3,1.5-10.1,1-14.4-1.5s-7.2-6.4-8.8-11.7
		l-2.2-7.8c-1.5-5.3-1.1-10.1,1.2-14.5c2.3-4.4,6.1-7.4,11.4-8.9c5.4-1.5,10.2-1.1,14.6,1.4s7.3,6.4,8.8,11.7L254.2,70.8z
		 M243.3,65.4c-1-3.4-2.6-5.9-4.9-7.6c-2.3-1.7-4.9-2.1-7.9-1.2c-2.9,0.8-4.9,2.6-5.9,5.2s-1,5.6,0,9l2.3,7.8c1,3.4,2.6,6,4.9,7.7
		c2.3,1.7,4.9,2.1,7.8,1.3c3-0.9,5-2.6,6-5.2c1-2.6,1.1-5.7,0.1-9.1L243.3,65.4z"/>
	<path class="st0" d="M305.2,95.2l-8.1,0.7l-0.9-11l-27.4,2.3l0.9,11l-8.3,0.7l-2.2-17.9l3.4-0.3c1.5-1.5,2.7-3.8,3.6-6.9
		c0.9-3.1,1.3-7.5,1-13.2l-0.3-18.4l29.1-2.5l3.2,37.8l5.3-0.5L305.2,95.2z M276.2,59.9c0.2,4.5,0,8.4-0.6,11.7
		c-0.6,3.2-1.5,6-2.8,8.3l17.5-1.5l-2.6-30.9l-11.6,1L276.2,59.9z"/>
	<path class="st0" d="M334.4,78l-15.7-1.8l-4.2,9.3l-9-1.1l20.6-42.8l9.2,1.1l10.1,46.4l-9-1.1L334.4,78z M321.7,69.4l11.2,1.3
		l-3.5-18.2l-0.2,0L321.7,69.4z"/>
	<path class="st0" d="M348.1,90l13.2-42.9l14.5,4.5c5,1.6,8.7,3.7,10.9,6.6c2.2,2.8,2.7,6.2,1.5,10.1c-0.6,2-1.7,3.6-3.2,4.8
		c-1.5,1.2-3.4,1.9-5.7,2.1c2.4,1.3,4,3.1,4.7,5.3c0.7,2.2,0.7,4.5,0,6.9c-1.3,4.1-3.6,6.8-6.9,8.1c-3.4,1.3-7.5,1.2-12.5-0.4
		L348.1,90z M362.6,73.7l-3.8,12.4l7.9,2.4c2.3,0.7,4.2,0.7,5.7,0.1c1.5-0.6,2.6-1.9,3.2-3.8c0.6-2.1,0.6-3.9-0.1-5.3
		c-0.7-1.4-2.1-2.5-4.3-3.1L362.6,73.7z M364.4,67.8l6.2,1.9c2.3,0.7,4.2,0.8,5.7,0.2c1.5-0.6,2.6-1.7,3.1-3.6c0.6-2,0.4-3.6-0.5-5
		c-1-1.3-2.7-2.4-5.2-3.1l-5.9-1.8L364.4,67.8z"/>
	<path class="st0" d="M407.2,62.6l7.9,4.3L397,100.2l16.1,8.7l18.1-33.4l7.9,4.3l-18.1,33.4l4.8,2.6l-8.6,15.8l-7.9-4.3l5.3-9.7
		L385.8,102L407.2,62.6z"/>
	<path class="st0" d="M433.8,131.7l-7.2-5.4l27.1-35.8l7.2,5.4L433.8,131.7z"/>
	<path class="st0" d="M440.5,136.4l31.6-31.9l10.8,10.7c3.7,3.7,5.9,7.4,6.6,10.9s-0.5,6.8-3.3,9.7c-1.5,1.5-3.2,2.4-5.1,2.8
		c-1.9,0.4-3.9,0.1-6-0.8c1.5,2.3,2.1,4.6,1.7,6.9c-0.4,2.3-1.4,4.3-3.2,6.1c-3,3-6.3,4.4-9.9,3.9c-3.6-0.4-7.2-2.5-10.9-6.1
		L440.5,136.4z M460.9,128.7l-9.1,9.2l5.9,5.8c1.7,1.7,3.3,2.6,5,2.7c1.6,0.1,3.1-0.5,4.6-1.9c1.5-1.6,2.3-3.1,2.4-4.7
		s-0.7-3.2-2.4-4.8L460.9,128.7z M465.3,124.3l4.6,4.6c1.7,1.7,3.4,2.6,5,2.9c1.6,0.2,3.1-0.4,4.4-1.7c1.5-1.5,2.1-3,1.8-4.6
		c-0.2-1.6-1.3-3.3-3.1-5.2l-4.4-4.3L465.3,124.3z"/>
	<path class="st0" d="M518.5,215.9l-2.1-4.8l-17.2,7.5l-3.6-8.2l17.2-7.5l-2.1-4.9l-21.2-1.7l-4.5-10.3l27.8,3.3l13.6-20.5l4.4,10.2
		l-12.8,16.6l1.9,4.3l16.8-7.3l3.6,8.2l-16.8,7.3l1.8,4.2l20.8,1.7l4.4,10.2l-24.2-3.8l-16.7,22.4l-4.5-10.3L518.5,215.9z"/>
	<path class="st0" d="M529.8,256.2l-0.9-4.9l-18.4,3.4l-1.6-8.9l44.2-8.1l1.6,8.9l-18.1,3.3l0.7,3.9l20.2,8.4l2,10.8l-23.3-11.1
		l-20.7,20.4l-2-10.8L529.8,256.2z"/>
	<path class="st0" d="M553.3,313.9l-0.2-20.3l-38,0.3l-0.1-9l44.9-0.4l0.2,29.3L553.3,313.9z"/>
	<path class="st0" d="M533.6,355.6l-2.5,0.1l0,0.2l19.7,13.4l-2.2,9.3l-31.8-23.4c-2.6-2-4.4-4-5.5-6.1c-1.1-2.1-1.3-4.7-0.5-7.9
		c0.1-0.5,0.3-1.1,0.5-1.7c0.2-0.6,0.3-1.1,0.5-1.4l6.7,1.5c-0.1,0.2-0.2,0.6-0.4,1.1c-0.1,0.5-0.3,0.9-0.3,1.2
		c-0.4,1.6-0.3,2.9,0.2,3.8c0.5,1,1.4,1.9,2.7,2.7l1.5,1.1l35.4-7.8l-2.3,9.4L533.6,355.6z"/>
	<path class="st0" d="M515,392.2l2-4.6l-17.2-7.6l3.6-8.2l41.1,18.1l-3.6,8.2l-16.8-7.4l-1.6,3.6l12,18.3l-4.4,10.1l-13-22.3
		l-28.5,5.2l4.4-10L515,392.2z"/>
	<path class="st0" d="M495.3,424.3l-13.4-9.2l5.1-7.4L524,433l-10.1,14.8c-2.9,4.3-6.3,6.9-10.1,7.8c-3.8,1-7.5,0.2-11.1-2.2
		c-3.5-2.4-5.6-5.6-6.1-9.5c-0.5-3.9,0.7-8,3.6-12.3L495.3,424.3z M501,428.2l-5,7.3c-1.4,2.1-1.9,4-1.5,5.9s1.5,3.4,3.2,4.6
		c1.8,1.2,3.6,1.7,5.5,1.4c1.9-0.3,3.5-1.4,5-3.5l5-7.3L501,428.2z"/>
	<path class="st0" d="M457.5,460.6l10.9-11.4l-4.9-8.9l6.3-6.6l21.9,42.1l-6.4,6.7l-43.2-19.8l6.3-6.6L457.5,460.6z M472,455.6
		l-7.8,8.2l16.6,8.1l0.1-0.1L472,455.6z"/>
	<path class="st0" d="M431.5,470.2l7-5.6l28.1,35l-7,5.6L431.5,470.2z M456.6,513.4l6.4-5.1l3.9,4.9l-6.4,5.1L456.6,513.4z
		 M468.7,503.7l6.4-5.1l3.9,4.9l-6.4,5.1L468.7,503.7z"/>
	<path class="st0" d="M394.1,494.1l7.7-4.6l9.5,16.1l15.8-9.3l-9.5-16.1l7.8-4.6l22.8,38.7l-7.8,4.6l-9.8-16.6l-15.8,9.3l9.8,16.6
		l-7.7,4.6L394.1,494.1z"/>
	<path class="st0" d="M377,548.2l-8.5,3l-14.7-42.4l8.5-3l9.8,28.3l0.2,0l7.3-34.3l8.5-2.9l14.7,42.4l-8.5,2.9l-9.8-28.3l-0.2,0
		L377,548.2z"/>
</g>
<rect x="362.5" y="291.9" class="st0" width="11.8" height="8.1"/>
<rect x="351" y="309.4" class="st0" width="14.4" height="10.6"/>
<rect x="344" y="325.3" class="st0" width="11" height="14.6"/>
<rect x="363.8" y="338.7" class="st0" width="20.3" height="8.2"/>
<rect x="351" y="353.3" class="st0" width="12.8" height="12.8"/>
</svg>
